<mxfile host="app.diagrams.net" modified="2021-06-03T12:49:46.542Z" agent="5.0 (Windows NT 10.0; Win64; x64) AppleWebKit/537.36 (KHTML, like Gecko) Chrome/90.0.4430.212 Safari/537.36" etag="G-azVTsqEiEUj2H7oidY" version="14.7.4" type="github">
  <diagram id="kgpKYQtTHZ0yAKxKKP6v" name="Page-1">
    <mxGraphModel dx="2980" dy="913" grid="1" gridSize="10" guides="1" tooltips="1" connect="1" arrows="1" fold="1" page="1" pageScale="1" pageWidth="850" pageHeight="1100" math="0" shadow="0">
      <root>
        <mxCell id="0" />
        <mxCell id="1" parent="0" />
        <mxCell id="bMBjgCvYi46jGqGa0Gqf-4" value="" style="shape=image;verticalLabelPosition=bottom;labelBackgroundColor=#ffffff;verticalAlign=top;aspect=fixed;imageAspect=0;image=data:image/jpeg,/9j/4AAQSkZJRgABAQEAYABgAAD/4RDaRXhpZgAATU0AKgAAAAgABAE7AAIAAAAFAAAISodpAAQAAAABAAAIUJydAAEAAAAKAAAQyOocAAcAAAgMAAAAPgAAAAAc6gAAAAgAAAAAAAAAAAAAAAAAAAAAAAAAAAAAAAAAAAAAAAAAAAAAAAAAAAAAAAAAAAAAAAAAAAAAAAAAAAAAAAAAAAAAAAAAAAAAAAAAAAAAAAAAAAAAAAAAAAAAAAAAAAAAAAAAAAAAAAAAAAAAAAAAAAAAAAAAAAAAAAAAAAAAAAAAAAAAAAAAAAAAAAAAAAAAAAAAAAAAAAAAAAAAAAAAAAAAAAAAAAAAAAAAAAAAAAAAAAAAAAAAAAAAAAAAAAAAAAAAAAAAAAAAAAAAAAAAAAAAAAAAAAAAAAAAAAAAAAAAAAAAAAAAAAAAAAAAAAAAAAAAAAAAAAAAAAAAAAAAAAAAAAAAAAAAAAAAAAAAAAAAAAAAAAAAAAAAAAAAAAAAAAAAAAAAAAAAAAAAAAAAAAAAAAAAAAAAAAAAAAAAAAAAAAAAAAAAAAAAAAAAAAAAAAAAAAAAAAAAAAAAAAAAAAAAAAAAAAAAAAAAAAAAAAAAAAAAAAAAAAAAAAAAAAAAAAAAAAAAAAAAAAAAAAAAAAAAAAAAAAAAAAAAAAAAAAAAAAAAAAAAAAAAAAAAAAAAAAAAAAAAAAAAAAAAAAAAAAAAAAAAAAAAAAAAAAAAAAAAAAAAAAAAAAAAAAAAAAAAAAAAAAAAAAAAAAAAAAAAAAAAAAAAAAAAAAAAAAAAAAAAAAAAAAAAAAAAAAAAAAAAAAAAAAAAAAAAAAAAAAAAAAAAAAAAAAAAAAAAAAAAAAAAAAAAAAAAAAAAAAAAAAAAAAAAAAAAAAAAAAAAAAAAAAAAAAAAAAAAAAAAAAAAAAAAAAAAAAAAAAAAAAAAAAAAAAAAAAAAAAAAAAAAAAAAAAAAAAAAAAAAAAAAAAAAAAAAAAAAAAAAAAAAAAAAAAAAAAAAAAAAAAAAAAAAAAAAAAAAAAAAAAAAAAAAAAAAAAAAAAAAAAAAAAAAAAAAAAAAAAAAAAAAAAAAAAAAAAAAAAAAAAAAAAAAAAAAAAAAAAAAAAAAAAAAAAAAAAAAAAAAAAAAAAAAAAAAAAAAAAAAAAAAAAAAAAAAAAAAAAAAAAAAAAAAAAAAAAAAAAAAAAAAAAAAAAAAAAAAAAAAAAAAAAAAAAAAAAAAAAAAAAAAAAAAAAAAAAAAAAAAAAAAAAAAAAAAAAAAAAAAAAAAAAAAAAAAAAAAAAAAAAAAAAAAAAAAAAAAAAAAAAAAAAAAAAAAAAAAAAAAAAAAAAAAAAAAAAAAAAAAAAAAAAAAAAAAAAAAAAAAAAAAAAAAAAAAAAAAAAAAAAAAAAAAAAAAAAAAAAAAAAAAAAAAAAAAAAAAAAAAAAAAAAAAAAAAAAAAAAAAAAAAAAAAAAAAAAAAAAAAAAAAAAAAAAAAAAAAAAAAAAAAAAAAAAAAAAAAAAAAAAAAAAAAAAAAAAAAAAAAAAAAAAAAAAAAAAAAAAAAAAAAAAAAAAAAAAAAAAAAAAAAAAAAAAAAAAAAAAAAAAAAAAAAAAAAAAAAAAAAAAAAAAAAAAAAAAAAAAAAAAAAAAAAAAAAAAAAAAAAAAAAAAAAAAAAAAAAAAAAAAAAAAAAAAAAAAAAAAAAAAAAAAAAAAAAAAAAAAAAAAAAAAAAAAAAAAAAAAAAAAAAAAAAAAAAAAAAAAAAAAAAAAAAAAAAAAAAAAAAAAAAAAAAAAAAAAAAAAAAAAAAAAAAAAAAAAAAAAAAAAAAAAAAAAAAAAAAAAAAAAAAAAAAAAAAAAAAAAAAAAAAAAAAAAAAAAAAAAAAAAAAAAAAAAAAAAAAAAAAAAAAAAAAAAAAAAAAAAAAAAAAAAAAAAAAAAAAAAAAAAAAAAAAAAAAAAAAAAAAAAAAAAAAAAAAAAAAAAAAAAAAAAAAAAAAAAAAAAAAAAAAAAAAAAAAAAAAAAAAAAAAAAAAAAAAAAAAAAAAAAAAAAAAAAAAAAAAAAAAAAAAAAAAAAAAAAAAAAAAAAAAAAAAAAAAAAAAAAAAAAAAAAAAAAAAAAAAAAAAAAAAAAAAAAAAAAAAAAAAAAAAAAAAAAAAAAAAAAAAAAAAAAAAAAAAAAAAAAAAAAAAAAAAAAAAAAAAAAAAAAAAAAAAAAAAAAAAAAAAAAAAAAAAAAAAAAAAAAAAAAAAAAAAAAAAAAAAAAAAAAAAAAAAAAAAAAAAAAAAAAAAAAAAAAAAAAAAAAAAAAAAAAAAAAAAAAAAAAAAAAAAAAAAAAAAAAAAAAAAAAAAAAAAAAAAAAAAAAAAAAAAAAAAAAAAAAAAAAAAAAAAAAAAAAAAAAAAAAAAAAAAAAAAAAAAAAAAAAAAAAAAAAAAAAAAAAAAAAAAAAAAAAAAAAAAAAAAAAAAAAAAAAAAAAAAAAAAAAAAAAAAAAAAAAAAAAAAAAAAAAAAAAAAAAAAAAAAAAAAAAAAAAAAAAAAAAAAAAAAAAAAAAAAAAAAAAAAAAAAAAAAAAAAAAAAAAAAAAAAAAAAAAAAAAAAAAAAAAAAAAAAAAAAAAAAAAAAAAAAAAAAAAAAAAAAAAAAAAAAAAAAAAAAAAAAAAAAAAAAAAAAAAAAAAAAAAAAAAAAAAAAAAAAAAAAAAAAAAAAAAAAAAAAAAAAAAAAAAAAAAAAAAAAAAAAAAAAAAAAAAAAAAAAAAAAAAAAAAAAAAAAAAAAAAAAAAAAAAAAAAAAAAAAAAAAAAAAAAAAAAAAAAAAAAAAAAAAAAAAAAAAAAAAAAAAAAAAAAAAAAAAAAAAAAAAAAAAAE1PUk8AAAAFkAMAAgAAABQAABCekAQAAgAAABQAABCykpEAAgAAAAM5NwAAkpIAAgAAAAM5NwAA6hwABwAACAwAAAiSAAAAABzqAAAACAAAAAAAAAAAAAAAAAAAAAAAAAAAAAAAAAAAAAAAAAAAAAAAAAAAAAAAAAAAAAAAAAAAAAAAAAAAAAAAAAAAAAAAAAAAAAAAAAAAAAAAAAAAAAAAAAAAAAAAAAAAAAAAAAAAAAAAAAAAAAAAAAAAAAAAAAAAAAAAAAAAAAAAAAAAAAAAAAAAAAAAAAAAAAAAAAAAAAAAAAAAAAAAAAAAAAAAAAAAAAAAAAAAAAAAAAAAAAAAAAAAAAAAAAAAAAAAAAAAAAAAAAAAAAAAAAAAAAAAAAAAAAAAAAAAAAAAAAAAAAAAAAAAAAAAAAAAAAAAAAAAAAAAAAAAAAAAAAAAAAAAAAAAAAAAAAAAAAAAAAAAAAAAAAAAAAAAAAAAAAAAAAAAAAAAAAAAAAAAAAAAAAAAAAAAAAAAAAAAAAAAAAAAAAAAAAAAAAAAAAAAAAAAAAAAAAAAAAAAAAAAAAAAAAAAAAAAAAAAAAAAAAAAAAAAAAAAAAAAAAAAAAAAAAAAAAAAAAAAAAAAAAAAAAAAAAAAAAAAAAAAAAAAAAAAAAAAAAAAAAAAAAAAAAAAAAAAAAAAAAAAAAAAAAAAAAAAAAAAAAAAAAAAAAAAAAAAAAAAAAAAAAAAAAAAAAAAAAAAAAAAAAAAAAAAAAAAAAAAAAAAAAAAAAAAAAAAAAAAAAAAAAAAAAAAAAAAAAAAAAAAAAAAAAAAAAAAAAAAAAAAAAAAAAAAAAAAAAAAAAAAAAAAAAAAAAAAAAAAAAAAAAAAAAAAAAAAAAAAAAAAAAAAAAAAAAAAAAAAAAAAAAAAAAAAAAAAAAAAAAAAAAAAAAAAAAAAAAAAAAAAAAAAAAAAAAAAAAAAAAAAAAAAAAAAAAAAAAAAAAAAAAAAAAAAAAAAAAAAAAAAAAAAAAAAAAAAAAAAAAAAAAAAAAAAAAAAAAAAAAAAAAAAAAAAAAAAAAAAAAAAAAAAAAAAAAAAAAAAAAAAAAAAAAAAAAAAAAAAAAAAAAAAAAAAAAAAAAAAAAAAAAAAAAAAAAAAAAAAAAAAAAAAAAAAAAAAAAAAAAAAAAAAAAAAAAAAAAAAAAAAAAAAAAAAAAAAAAAAAAAAAAAAAAAAAAAAAAAAAAAAAAAAAAAAAAAAAAAAAAAAAAAAAAAAAAAAAAAAAAAAAAAAAAAAAAAAAAAAAAAAAAAAAAAAAAAAAAAAAAAAAAAAAAAAAAAAAAAAAAAAAAAAAAAAAAAAAAAAAAAAAAAAAAAAAAAAAAAAAAAAAAAAAAAAAAAAAAAAAAAAAAAAAAAAAAAAAAAAAAAAAAAAAAAAAAAAAAAAAAAAAAAAAAAAAAAAAAAAAAAAAAAAAAAAAAAAAAAAAAAAAAAAAAAAAAAAAAAAAAAAAAAAAAAAAAAAAAAAAAAAAAAAAAAAAAAAAAAAAAAAAAAAAAAAAAAAAAAAAAAAAAAAAAAAAAAAAAAAAAAAAAAAAAAAAAAAAAAAAAAAAAAAAAAAAAAAAAAAAAAAAAAAAAAAAAAAAAAAAAAAAAAAAAAAAAAAAAAAAAAAAAAAAAAAAAAAAAAAAAAAAAAAAAAAAAAAAAAAAAAAAAAAAAAAAAAAAAAAAAAAAAAAAAAAAAAAAAAAAAAAAAAAAAAAAAAAAAAAAAAAAAAAAAAAAAAAAAAAAAAAAAAAAAAAAAAAAAAAAAAAAAAAAAAAAAAAAAAAAAAAAAAAAAAAAAAAAAAAAAAAAAAAAAAAAAAAAAAAAAAAAAAAAAAAAAAAAAAAAAAAAAAAAAAAAAAAAAAAAAAAAAAAAAAAAAAAAAAAAAAAAAAAAAAAAAAAAAAAAAAAAAAAAAAAAAAAAAAAAAAAAAAAAAAAAAAAAAAAAAAAAAAAAAAAAAAAAAAAAAAAAAAAAAAAAAAAAAAAAAAAAAAAAAAAAAAAAAAAAAAAAAAAAAAAAAAAAAAAAAAAAAAAAAAAAAAAAAAAAAAAAAAAAAAAAAAAAAAAAAAAAAAAAAAAAAAAAAAAAAAAAAAAAAAAAAAAAAAAAAAAAAAAAAAAAAAAAAAAAAAAAAAAAAAAAAAAAAAAAAAAAAAAAAAAAAAAAAAAAAAAAAAAAAAAAAAAAAAAAAAAAAAAAAAAAAAAAAAAAAAAAAAAAAAAAAAAAAAAAAAAAAAAAAAAAAAAAAAAAAAAAAAAAAAAAAAAAAAAAAAAAAAAAAAAAAAAAAAAAAAAAAAAAAAAAAAAAAAAAAAAAAAAAAAAAAAAAAAAAAAAAAAAAAAAAAAAAAAAAAAAAAAAAAAAAAAAAAAAAAAAAAAAAAAAAAAAAAAAAAAAAAAAAAAAAAAAAAAAAAAAAAAAAAAAAAAAAAAAAAAAAAAAAAAAAAAAAAAAAAAAAAAAAAAAAAAAAAAAAAAAAAAAAAAAAAAAAAAAAAAAAAAAAAAAAAAAAAAAAAAAAAAAAAAAAAAAAAAAAAAAAAAAAAAAAAAAAAAAAAAAAAAAAAAAAAAAAAAAAAAAAAAAAAAAAAAAAAAAAAAAAAAAAAAAAAAAAAAAAAAAAAAAAAAAAAAAAAAAAAAAAAAAAAAAAAAAAAAAAAAAAAAAAAAAAAAAAAAAAAAAAAAAAAAAAAAAAAAAAAAAAAAAAAAAAAAAAAAAAAAAAAAAAAAAAAAAAAAAAAAAAAAAAAAAAAAAAAAAAAAAAAAAAAAAAAAAAAAAAAAAAAAAAAAAAAAAAAAAAAAAAAAAAAAAAAAAAAAAAAAAAAAAAAAAAAAAAAAAMjAxMzowNToyMSAxMTo0OToyMQAyMDEzOjA1OjIxIDExOjQ5OjIxAAAATQBPAFIATwAAAP/hCxdodHRwOi8vbnMuYWRvYmUuY29tL3hhcC8xLjAvADw/eHBhY2tldCBiZWdpbj0n77u/JyBpZD0nVzVNME1wQ2VoaUh6cmVTek5UY3prYzlkJz8+DQo8eDp4bXBtZXRhIHhtbG5zOng9ImFkb2JlOm5zOm1ldGEvIj48cmRmOlJERiB4bWxuczpyZGY9Imh0dHA6Ly93d3cudzMub3JnLzE5OTkvMDIvMjItcmRmLXN5bnRheC1ucyMiPjxyZGY6RGVzY3JpcHRpb24gcmRmOmFib3V0PSJ1dWlkOmZhZjViZGQ1LWJhM2QtMTFkYS1hZDMxLWQzM2Q3NTE4MmYxYiIgeG1sbnM6ZGM9Imh0dHA6Ly9wdXJsLm9yZy9kYy9lbGVtZW50cy8xLjEvIi8+PHJkZjpEZXNjcmlwdGlvbiByZGY6YWJvdXQ9InV1aWQ6ZmFmNWJkZDUtYmEzZC0xMWRhLWFkMzEtZDMzZDc1MTgyZjFiIiB4bWxuczp4bXA9Imh0dHA6Ly9ucy5hZG9iZS5jb20veGFwLzEuMC8iPjx4bXA6Q3JlYXRlRGF0ZT4yMDEzLTA1LTIxVDExOjQ5OjIxLjk2OTwveG1wOkNyZWF0ZURhdGU+PC9yZGY6RGVzY3JpcHRpb24+PHJkZjpEZXNjcmlwdGlvbiByZGY6YWJvdXQ9InV1aWQ6ZmFmNWJkZDUtYmEzZC0xMWRhLWFkMzEtZDMzZDc1MTgyZjFiIiB4bWxuczpkYz0iaHR0cDovL3B1cmwub3JnL2RjL2VsZW1lbnRzLzEuMS8iPjxkYzpjcmVhdG9yPjxyZGY6U2VxIHhtbG5zOnJkZj0iaHR0cDovL3d3dy53My5vcmcvMTk5OS8wMi8yMi1yZGYtc3ludGF4LW5zIyI+PHJkZjpsaT5NT1JPPC9yZGY6bGk+PC9yZGY6U2VxPg0KCQkJPC9kYzpjcmVhdG9yPjwvcmRmOkRlc2NyaXB0aW9uPjwvcmRmOlJERj48L3g6eG1wbWV0YT4NCiAgICAgICAgICAgICAgICAgICAgICAgICAgICAgICAgICAgICAgICAgICAgICAgICAgICAgICAgICAgICAgICAgICAgICAgICAgICAgICAgICAgICAgICAgICAgICAgICAgICAKICAgICAgICAgICAgICAgICAgICAgICAgICAgICAgICAgICAgICAgICAgICAgICAgICAgICAgICAgICAgICAgICAgICAgICAgICAgICAgICAgICAgICAgICAgICAgICAgICAgIAogICAgICAgICAgICAgICAgICAgICAgICAgICAgICAgICAgICAgICAgICAgICAgICAgICAgICAgICAgICAgICAgICAgICAgICAgICAgICAgICAgICAgICAgICAgICAgICAgICAgCiAgICAgICAgICAgICAgICAgICAgICAgICAgICAgICAgICAgICAgICAgICAgICAgICAgICAgICAgICAgICAgICAgICAgICAgICAgICAgICAgICAgICAgICAgICAgICAgICAgICAKICAgICAgICAgICAgICAgICAgICAgICAgICAgICAgICAgICAgICAgICAgICAgICAgICAgICAgICAgICAgICAgICAgICAgICAgICAgICAgICAgICAgICAgICAgICAgICAgICAgIAogICAgICAgICAgICAgICAgICAgICAgICAgICAgICAgICAgICAgICAgICAgICAgICAgICAgICAgICAgICAgICAgICAgICAgICAgICAgICAgICAgICAgICAgICAgICAgICAgICAgCiAgICAgICAgICAgICAgICAgICAgICAgICAgICAgICAgICAgICAgICAgICAgICAgICAgICAgICAgICAgICAgICAgICAgICAgICAgICAgICAgICAgICAgICAgICAgICAgICAgICAKICAgICAgICAgICAgICAgICAgICAgICAgICAgICAgICAgICAgICAgICAgICAgICAgICAgICAgICAgICAgICAgICAgICAgICAgICAgICAgICAgICAgICAgICAgICAgICAgICAgIAogICAgICAgICAgICAgICAgICAgICAgICAgICAgICAgICAgICAgICAgICAgICAgICAgICAgICAgICAgICAgICAgICAgICAgICAgICAgICAgICAgICAgICAgICAgICAgICAgICAgCiAgICAgICAgICAgICAgICAgICAgICAgICAgICAgICAgICAgICAgICAgICAgICAgICAgICAgICAgICAgICAgICAgICAgICAgICAgICAgICAgICAgICAgICAgICAgICAgICAgICAKICAgICAgICAgICAgICAgICAgICAgICAgICAgICAgICAgICAgICAgICAgICAgICAgICAgICAgICAgICAgICAgICAgICAgICAgICAgICAgICAgICAgICAgICAgICAgICAgICAgIAogICAgICAgICAgICAgICAgICAgICAgICAgICAgICAgICAgICAgICAgICAgICAgICAgICAgICAgICAgICAgICAgICAgICAgICAgICAgICAgICAgICAgICAgICAgICAgICAgICAgCiAgICAgICAgICAgICAgICAgICAgICAgICAgICAgICAgICAgICAgICAgICAgICAgICAgICAgICAgICAgICAgICAgICAgICAgICAgICAgICAgICAgICAgICAgICAgICAgICAgICAKICAgICAgICAgICAgICAgICAgICAgICAgICAgICAgICAgICAgICAgICAgICAgICAgICAgICAgICAgICAgICAgICAgICAgICAgICAgICAgICAgICAgICAgICAgICAgICAgICAgIAogICAgICAgICAgICAgICAgICAgICAgICAgICAgICAgICAgICAgICAgICAgICAgICAgICAgICAgICAgICAgICAgICAgICAgICAgICAgICAgICAgICAgICAgICAgICAgICAgICAgCiAgICAgICAgICAgICAgICAgICAgICAgICAgICAgICAgICAgICAgICAgICAgICAgICAgICAgICAgICAgICAgICAgICAgICAgICAgICAgICAgICAgICAgICAgICAgICAgICAgICAKICAgICAgICAgICAgICAgICAgICAgICAgICAgICAgICAgICAgICAgICAgICAgICAgICAgICAgICAgICAgICAgICAgICAgICAgICAgICAgICAgICAgICAgICAgICAgICAgICAgIAogICAgICAgICAgICAgICAgICAgICAgICAgICAgICAgICAgICAgICAgICAgICAgICAgICAgICAgICAgICAgICAgICAgICAgICAgICAgICAgICAgICAgICAgICAgICAgICAgICAgCiAgICAgICAgICAgICAgICAgICAgICAgICAgICAgICAgICAgICAgICAgICAgICAgICAgICAgICAgICAgICAgICAgICAgICAgICAgICAgICAgICAgICAgICAgICAgICAgICAgICAKICAgICAgICAgICAgICAgICAgICAgICAgICAgICAgICAgICAgICAgICAgICAgICAgICAgICAgICAgICAgICAgICAgICAgICAgICAgICAgICAgICAgICAgICAgICAgICAgICAgIAogICAgICAgICAgICAgICAgICAgICAgICAgICAgPD94cGFja2V0IGVuZD0ndyc/Pv/bAEMABwUFBgUEBwYFBggHBwgKEQsKCQkKFQ8QDBEYFRoZGBUYFxseJyEbHSUdFxgiLiIlKCkrLCsaIC8zLyoyJyorKv/bAEMBBwgICgkKFAsLFCocGBwqKioqKioqKioqKioqKioqKioqKioqKioqKioqKioqKioqKioqKioqKioqKioqKioqKv/CABEIAWcBvgMBIgACEQEDEQH/xAAbAAEBAAMBAQEAAAAAAAAAAAAABQIEBgMBB//EABUBAQEAAAAAAAAAAAAAAAAAAAAB/9oADAMBAAIQAxAAAAHqs9XUK6V9s389VHr7TKNZiABkYqYmKYmKYmKYmKYmKYmKYmKYmKYmKYmKYmKYmKYmKYmKYmKYmKYmKYmKYmKYmNzTPnjB8F6v7yfudK5bJOnwjzzqwAM8MysQ1uJHqUkwU0n0KSaKSb8Kbnt8pJopJopJopJopJopJopJopJopJopJopJopJopIF81p9CekvQ3cV0/bdzTQ+7Oa+dSTQs9hADPDMrTaUFdXKoNDCkNT5uDV0LIl5UsY+VSwFAAAAAAAAAAAm0ptI1p9Cek2f7+C+W1lbs5/ZrpZXhcWBADPDMrTaU1aQPkqlJN3dnUQAAAAAAAAAA1dcpJopJopJopJuwa9KbSNafQnoAAAAAAzwzK02lNWkBzvRQStsY5AAAAAAAAAAE2lNpGho1NU+eWxin3Lw9VpTaU0UptI1p9CegAAAAADPDMrTaU1aTQgx1mjEyLFDmvldMl1EBQAAAAAAANbWpCapCBnu5nipCbtbAm0ptI1p9CegAAAAADPDMrTaU1aQEexzx0LnB0bnB0bnB0bnBb8uV8Y7Tz5BXaOT8DsvDkvkdo5D7XcOcHRucHRucHRucFTPhe6NwAE2lNpGtPoT0AAAAAAZ4ZlabSmrSAjWYxZAAAAMDNO9Tca2JttcbDz9AAAACbseeZtgAm0ptI1p9CegAAAAADPDMrTaU1aQHP9BIOctX/pz7oBz7oBz7oBz+t1KODy7pZwnv2iXh/ncq5r16Ac+6Ac+6Ac+6Ac+6Acj0HzM3AATaU2ka0+hPQAAAAABnhmVptKatICNZ546Fzw6Fzw6HVkasV/OPhXTYwSXdWR5L0Ppz46HHm8zpvCJqnU+cHzOs2uX9zoXPDoXPClnwHfm4ACbSm0jWn0J6AAAAAAM8MytNpTVpARrMYsgAAGqbTU8UotYuy1hstfE2mqNp5+gAABpZ+WZuAAm0ptI1p9CegAAAAADPDMrTaU1aQEG9GObtdGOcdGOcdGOc8OqHBY9+jhvvcK4D27kcHh36OCd6s5TY6MvOOjHOOjHOOjHH9F8zNwAE2lNpGtPoT0AAAAAAZ4ZlabSmrSAjWeeOhc8Ohc8Ohc8Ohc8KmvH8To/KJ5nT+UbVTqvGF5r0PvzGwdS54dC54dC54dC54Us+B782wATaU2ka0+hPQAAAAABnhmVptKatICNZkFcAAAA+R9SPlWEvAro/0rgAAAA0c/PM3AATaU2ka0+hPQAAAAABnhmVptKatIDn+gjHN2+iHOui8iEoCeoCeoCF9uepzOHW5HI5dZ5kf7SxJ6gJ6gJ6h6kp0Q5DofmZuAAm0ptI1p9CegAAAAADPDMrTaU1aR8Psb2gl2Xl5njR1PpVxn+Rc8pmBZ8pmMb+M30sqZycpd5K9q2dyTklBJ9FuaehiWtXRGVSTsp9o8N162UzaNkE2lNpGtPoT0AAAAAAZ4ZlabShrR1vfdEazKKoAACTtG4neZVS8YrIvnV5M1i4h+sV3M3K2gAAaGeGZuam2JdTGYZ0ptI1p9CegAAAAADPDMrc90MVbQHOdHGObt9EOddEOddEOX+9OOVw60crh1o5D71w5XDrRx/r1Y5P16cc66Ic66Ic66Ich0PzM3ANbZES3znRmtPoT0AAAAAAZ4ZlbmemmrSSKplGs86VYfuPvj6jDa8B644Iw8thXv8APEMM/I+emQ2Z2wTa18Us/c9Fa3vkML/PeqVPTgO+XbAmenoa9ObSNafQnoAAAAAAzwzK02lNWlNpCb5VebOmTNg2wDXNhyuZ07nNgtuf+l9y3w6pE+RcQNCzrnNfF6Z8+oCjA085WZV1NraPH2CbSm0jWn0J6AAAAAAM8MytNpTVpAQL8Y1vDqRyuPWDi/vZjmfSr5E9QE9QE3KgJ6gJ6gJ6gJ+jf3Tj8uyHM63Xj8y/QMczcABNpTaRrT6E9AAAAAAGeGZWm0izVITfGwJqkJqkJqkJqkJqkJqkJqkJqkJqkJqkJqkJqkJqkI2VcTVITVISqoa0+hPQAAAAAAD2AAAAAAAAAAAAAAAAAAABj5h//8QAMBAAAAUDAwQCAgEEAgMAAAAAAAECAwQFExQSFTIQESAwMzQjQDUhIiRQBjFBQkX/2gAIAQEAAQUCU4hJkZKLopxKAZklN5vt/sVJM5KluEk1u6VXkrfP+xek29LhkktKfFP9VWkC0gWkC0gWkC0gWkC0gWkC0gWkC0gWkC0gWkC0gWkC0gWkC0gWkC0gWkC0gWkC0gWkC0gWkC0gWkC0gWkC0gWkC0gWkC0gWkC0gOoSlPRTaHPJKiUXijn/AKh/gJzeqVcmNEcuWazemJdU9PSRvT0A3ZODFXLQrxRzDUZt99yJEaTgRwcGMQKDGMnIcVpvAjjAjjAjjAjjBjd2YTKpWBHGBHGBHGBHGBHGBHGBHGBHGBHGBHGBHGBHGBHGBHGBHGBHGBHGBHGBHGBHGBHGBHGBHGBHGBHEyIy1ED/ASppRVlUjQjLYZVuf9dy7FUJKkNxpmQ55I5iL8mzmRvwXn5+1/lOkmZO05S4hU1ROO066/tKiUqkfiVS/6Qv7j/ZqH0A/wDy2811iGtjtEIiTFI9MIgo4zzMR1pwE62avFHMMtOrfsSBYkCxIFiQLEgWJAsSBYkCxIBxFOft1D6Af4BVtM9NKJIVTlIcTTdDSaWREqF3jnDPFappNK8UcxE+ToZkkkHKkojvKWr9+ofQD/ASGXlTkMTTch5SPWjmInydHEE42iYUZuOlanv1XpLTB58cZ8cZ8cZ8cZ8cZ8cZ8cZ8cMyWnzqH0A/w9yOYifJ1kuS7rSnVF+qv+UD8omk7q32RPbNZVNg3SnsDOjdG/5KofQD/D3I5iJ8nWc4u+kyUn9Vf8oFR21lt8YHBjd9uihymsqbKnx0uBv+SqH0A/w9yOYifJ0P8AoURtSWoqFM/rOx2ZA26ENuhDboQmU6JgRadDxNuhDboQ26EGo7LAqH0A/wAPcjmInyTtZQluS9JSJiTckTFOFMkmpcyXqYefXI/Xn9jp0TsULwqH0A/w9yOYifJ1np1Pei+zqy2b2Sx3RLZcWUhkxfZ1rkNNpRNZcQUlkwmSwtfon9tuidsLwqH0A/w9yOYifJ1qziWhvA3gbwN4G8DeBvA3gHJbU7caNF1vQt1tZoltoaQ82h1bra3tbQJ9olMSG2Hd4G8DeBvA3gbwN4G8Bz/kRuCGeqD4VD6Af4e5HMRPk6z9F79qUgm4EXUcPwqH0A/w9yOYifJ1nqJL3pUtKEuzmWXDlMEeQyR5TGgpDJi+yELJxv0ziM6fFIyh+FQ+gH+HuRzET5OtWedjph16RIk7m6NzdG5ujc3Rubo3N0bm6NzdD8xchpJaQ1+If+FuGthR6j/9W57jbe5ujc3Rubo3N0bm6NzdG5ujc3Rubom1BxcCF/H+FQ+gH+HuRzET5Os4lm72LV+zP07dE7YXhUPoB/h7kcxE+TrPSSnvFyS00sp7RkiotGMtm0qURIKYggzU23FJqMfTnsG4c6OS8+P2cmMNr3KLpKdHMyqMZRsyWpHlPMip0QyOF4VD6Af4e5HMRPk61ZegZ8wZ8wZ8wZ8wZ8wOvvvHreH5O5uvGwTrxIcN11zSrtqdGpwnPzmr8mtTjynDS7q/IY0qDcmS0M+YM+YM+YM+YM+YF1ucsRD1QvCofQD/AA9yOYifJ1nmknv2pmvAja8TwqH0A/w9yOYifJ1nq0vebz5Mg5TSWkTmVt5LPdMllaiksGWQzqVIZQMqOMpjTlMGEOIc9E8tVOiFpheFQ+gH+HuRzET5OtUVJQmJU6s5LzKmMypjMqYzKmMypjMqYW/UVuLZnreOPO7252phE+OsmJ4bbntuqZnLCmJ6lrZnLBsTu7D1RYbzKmMypjMqYzKmMypjMqYzKmJsuoKgQv4/wqH0A/w9yOYifJ1np1PftT+23RO2F4VD6Af4e5HMRPk6zySb3oclstLcqLKAc6OSzqDJOolsuL3CMRFKZUnPjDPjdm5LTyvRPPTTYh94PhUPoB/h7kcxE+TrVlKSL9VF+qi/VRfqov1UX6qL9VF+qhxE91Zx5hkTM4jxpZobTUGjxJfYm55M480WJmlvcWlX6qL9VF+qi/VRfqov1UX6qL9VCplcM4uo4fhUPoB/h7kcxE+TrPUSXv2pxGdPikZQ/CofQD/D3I5iJ8nWcayd9JnpSVSbM9zaNOcmwdRbSCqTRkU9Ov1Ty702IXaD4VD6Af4e5HMRPk61bJ0w3K6crVWRqrI1VkaqyNVZGqsjVWRqrI71gYs8hpnknXMSLkoJXKSNMwzJdYMaqyNVZGqsjVWRqrI1VkaqyNVZGqsiadVwIX8f4VD6Af4e5HMRPk6z0kp7q4620WeyYvyFD/NULEgxh9xgRxt0MFCikCjskLLQsNA4kcwdPhmNvijBbIYrhC3MSLkxIzNIRMjuK6TjIqdEMjheFQ+gH+HuRzET5Os/RekVGPHSupyDU464a46ol85ZqNE38KpiEE5UG23M1FtNRbUCqrRpKqJ17ijU/NtoTU2zTurBkqqESo028e5ta01NpZOTENqKppuOTm20PTo5oM4qVkUtKZkxSIEFwnYPhUPoB/h7kcxE+QGfYss3RVGHzBM1RLZxaipRxqkZojVJtVmqEFRaobS2Km4ZxaipZxqkacSod3IFQW2cOoKBxKgZKjVJwKg1FRYtR74lQCY1SStEKooRi1ElLi1JxRxKgYVGqS0YtRJRxaiou1YGivamYaVxu8pgMyG3+tQ+gH+HuRzET5H5CWQUZT5ierS9+1PLVTohaYQejIeBPrjqFQ+gH+HuRzCXrAjx7fWbdu+U2UuMFSUokZrZHuDd12e20FVFtI3RoN1NKm2pyHlbh+c6swQ3Fu4mqmYYfTIR5T+x06J2KD0UklJb7xHqh9AP8PcjmIjZrqfWsNvuIiRa2mXZqws1YWasLNWFmrBcOoujEqhulBqBKKnTkg4E817bNIbZOu7bNIyg1BKtum99snXNvnjb5xBuHUmk2asLNWFmrCzVhZqws1YTWamUCF/H9ZDN+O+7fowf4e5HMQDLJ6zySb37U89NOiHqheH/AMEP8PcjmE/48v8A76z9F6U/jtNVX+3cTU4VZLSdWPuzUb77U48rdOzu79wzVXLDs/TCy1skVWIy3cJq3ZZVXsE1AjaTV9CI88n3odQvObo9gnUVXV1VagVWLudYSkmXLrM3UVPi6jh9ZargnkRU4P8AD3I5iL8n90AJUlaRVyWoYdSGHUhh1IYdTGHUxh1IYdSGHUhiVMYdSGHUhh1IYdSDlPqDqMOpDDqQw6kMOpDDqQw6mMOpDDqQw6kMOpBun1BpGHUwdNq6DiEZQuj0kyWwxZTUPoB/h7kcxE+QKim2pMwkqnGsnf2p5d6dELtCekNMD/IkhplthAqH0A/w9yOYifJ0UklJlw1NuX5DQalsPH1fWptjMnaHHZiZTc6Utep91px+Uyapck1pnzDcTKlEhqTJU4l55YW6/GSmRLvFKl91zJukuPgtaW0zZjTkCI3IdhNRmmPCofQD/D3I5iJ8nWqtG6MCcHaVJeJuky2g5CqyRbqSR3cCIspwsCcMCcMCcMCcMCcNuma8CcMCcMCcMCcMCcMCcMCcMGcFk4g+0xQKLWFnt880lRHiW7R57SIf0PCofQD/AA9yOYifJ1n6L3kuHGcPAZIYiiFmSQ0TSH+aO80apo1TR/mjtNFqWYxnjGEkxt8UIbQ2XhPPTToh6oXhUPoB/h7kcwcP8mIoYihiKDlOuniKGIoYihiKGIoYihiKGIoYihiKGIoYihiKGIoYihiKGIoYihiKGIoYihiKGIoYihiKGIoPw3VR2obpM4ihiKGIoYigqDcSH+HuRz/1D/D3f9HdWLqxdWLqxdWLqxdWLqxdWLqxdWLqxdWLqxdWLqxdWLqxdWLqxdWLqxdWLqxdWLqxdWLqxdWLqxdWLqxdWLqxdWLqxdWLqxdWLqwpalEP/8QAHBEAAQQDAQAAAAAAAAAAAAAAAQAhQWBAYXBQ/9oACAEDAQE/AaIXwJoMeHCOqnCPKjrHLc2//8QAHhEAAQMEAwAAAAAAAAAAAAAAQQFAYAAQETFQYYD/2gAIAQIBAT8BeJw+mIkhpIibp34YGY//AP/EAE8QAAECAgQICQcKBAUEAwEAAAEAAgMRBBIhMRATIjJRYXHRBSA0NUGBkZKTIzAzc5SxwhRAQlJicqGkwfAVJGPSQ1CCg+ElZKKyRFOE8f/aAAgBAQAGPwKTnSKmDPDlOkpk2IGuLf8AMgQSBV6EaxcMkykFIVq1vRqsQAc7sRbJ0yLwJqq8O6J1QgQTWOTlDoQA6OMFcrlcrlcrlcrlcrlcrlcrlcrlcrlcrlcrlcrlcrlcrlcrlcrlcrlcrlcrlcrlYMNtvRfxptII1cZu3/KevAfIveTCkwtbc6elOAaRfmwp1ii1pNa3Jxd1v4pzct0p/wCHZdYZqys7/b1J1hdf9DXemutrF1pDLQNMlDh1SGT6WG208Zu3BSXRaxIiyzz9UKcQEAmWe5Zru+5Wg+I5Tqu77kXvDg1t+W5Zru+5Zru+5Zru+5Zru+5SkZ+sO9UkEOk1wl5R31Vmu77lmu77lmu77lmu77lmu77lmu77lmu77lmu77lmu77lmu77lmu77lmu77lmu77lmu77lmu77lmu77lmu77lmu77lmu77lmu77lmu77lmu77lmu77lmu77lmu77k98MODhca5wdeCTmGVWc/0WVCc5zRN1YyTojKPJ5nd96StguAsrW3WyTDiHZYrWGdidDhg1qlatOUkW4twAudp47duCleu+EJn8xMMM5FusH9E9+a3ocerXqTXCIJNlk1Z9EtKaDHnVq/Q0AWbLEyCIoyQRayy1B+OEw+tOrfbtTnue0guna2fVemMrBzKtrquaZN16kGMitbkVXeTvvtv1p3lmtEj9C62elRov0HuFU/WkAJ/OouzB14Ax8APdVsdLSizyLALJiWSnHyOVY42WqqBCGqxXQbMroTY0QQ3N+iXrGNhNhlwEzpOhSERpJ6J8Zu3BSiykGGMbdVB+iFyx3cauWO7jVyx3cauWO7jVyx3cauWO7jVyx3cauWO7jVyx3capUikOis+pIAHb87i7MHXgm6JJzmVavWhOJOWrbr1qGIZBHSSywZMlJkTKrNcHFuhek0fR/elQYbXicLS2YNmhQoTYmVCkQ6SYcZOqQc3QJcZu3BSvXfCMJJsAQitiNgtda1tSZlrT4cYARYd8riOg/5BF2YOvA18OdSQDiCm4yI6Qnc7RcpUgOdPTKz8fNt24KV674Rhcw3OEkyFS2vbEGSKrCQ/ZJRKREaWVwGtab5Ce/5s0RHEF1wDSVe/wAN25Xv8N25Xv8ADduV7/DduV7/AA3ble/w3ble/wAN25Xv8N25OEJ0y28EEKLswdfn27cFK9d8I4lGnR4fpbPK/ZOpHHQ2s0VXT+bQPVRPezAwyz3VcrJl+5KG4tIa8TN5LbCf0RDpC0gdM7UA2ZYfpy2b0ZvuPRavSfhgpH3GfEouzB1+fbtwUr13wjiQ8UJ/J/LRNl0vf2IOaZg3fNoHqonvZgaHVjVdWGUb0PJ3faOveVWqS6c42dP6KyH/AOR1bgpMrNIuNYmWq9V2tcHaa5wUj7jPiUXZg6/Pt24KV674RxC+KPKxTXfq1J8EjIafJnVo6vmwx8GHEldXbOS5HA8ILkcDwguRwPCCj1KNR2OxbpOqASsUGtRaO41BN2LBnYuRwPCC5HA8ILkcDwgjiITIc76jZTUXZg6/Pt24KV674QomKrV+irepBsQZdjpOsFZv/KL3QXuM7g10s0oZJaJirKGbbT+irGC5tgBGLcautOlR3ZN3k3aHbh2osiNAAF9Qifzik1jIYp0zosUCqZjFtkerixdmDr8+3bgpXrvhHEodoEo87TqPmauNZWBlKsmw8Y2brjPZZ+K9NDt+0ntD2zbrv1oyisMhM5VyqY1lbRWTyXtyLxNPcHSqXgm1WRWT0Vgg1kVjibpGfmaTXmW4p05bFAqWNxbZT2cWLswdfn27cFK9d8I4lEiObEdVjzDYbZk2Fc30/wABc30/wFzfT/AXN9P8Bc30/wABc30/wFzfT/AXN9P8BV/kXCOcXSxA6Zbk1rqJwmQ0SHkRdMf2oD5JwnMCU8QNW4Ik0ThOZt9AP30KKz5DwiRFzvIapLGfJOEyZg2wQnRfkvCgcf6I171yThOfqBq3JpFC4RsM+TjVuTYjaHwkS1tW2Cub6f4C5vp/gLm+n+Aub6f4C5vp/gLm+n+Aub6f4C5vp/gKlUeJQ3EVXAavvBQCBVnDbYOizixdmDr8+3bgpXrvhHEodcE+XskdR+d0owGAPMNxyW3mSg186oJ9nFi7MHX59u3BSvXfCOJQ5sDpx+nosPmqz3Bo0lBrnTn0jotA/VWxWASnOsJKRjQ53Zya7GtquMgZqyMw/wCpWRWd5B7biJ+apAZnYp0rZdCgh2dUE7dXFi7MHX59u3BSvXfCOJR4kGE6KRFta0TnYVFa6hPIb9CHa4bVzdS+6N65upfdG9c3UvujeubqX3RvXN1L7o3rm6l90b1zdS+6N65upfdG9VDQKY0fZATf5PhCTbrG6Qf0TZUKnGqQRNrOhcip1lmaz99CbCNBp0mkmcm9M96n8hp18xY2w2blL5BTp1as5N0zmgwcHUuz7IXN1L7o3rm6l90b1zdS+6N65upfdG9c3UvujeubqX3RvXN1L7o3rm6l90b1zdS+6N6pDTQKS2cNwrECyxUf1TfdxYuzB1+fbtwUr13wjiUSoZeXttl0FTlbp+dUmvOrinTlsUCpOri2yns4sXZg6/Pt24KV674RxKHN4bKP09Nh41WI6RAnd0IW5RN0jploTjEyGi6+Zv1akYlbIDqs6pvVYCt5QQ/xkg2P5OJKZbenCIMXK6fTfuU3PlpsKDA4lxdVzT++hOYYki37JQk8umZWNOkD9VUe/K0AE/u9VsYZfcKzzfLNOmSEnm0TnVOreEcUS6V+SeNSS4VhinTGmxQC0SGLbIaLOLF2YOvz7duCleu+EcSiOax0Rwj2NHTYVzXF8Rq5ri+I1c1xfEaua4viNXNcXxGoGLwREcQC30guN6t4Kjm60x9BmOlA/wAJjgjpEfbr1lGD/CYuLJJIxoVUcExZVq/pRei9/BEYuP8AWXM8a3+v/wA61zVSJ2Gfyi33oPHBEasDP0yeYnBcZxc6sCIoFX8dSrfwiNP1+zXqCLzwTGm4gny1kwmVeCowaBItxt4lLSh/0iNYZ+m1z96s4HjCyXp9mvUE6pwVGyjMzigrmuL4jVzXF8Rq5ri+I1c1xfEaua4viNVLhGh4xgrC70e3oUAkSnDbZ1cWLswdfn27cFK9d8I4lDrNreXstusPzuPip18W6rVvnJQcZOvUFaemXFi7MHX59u3BSvXfCOJQ7AZx5WjUfMNm1zi6cpbJpzy8ZImRO0J7q0ql7SRNSx0OY+0g1kVji66RmiRGhmV+UmtxrZusFqy4zGy0uQ8vDtuywp4+HLTWCPlmWCecji3tdKwyPmKS2YE4TrTsUATBlDbaNnFi7MHX59u3BSvXfCOJR3UOG6I4RbWgynYVFa+hV5D0c8XV7VzT+ZauafzLVzT+ZauafzLVzT+ZauafzLVDeeCz5MzH8y3RJOi/w+IHH/uWa9WtA/w6JNt38yzVq1IO/hjrCTyhmrVqTXM4NeaolbSWaANGpAu4NJcOnHsutsu1oPHBz5tMx/Ms16vtJ0+DX2knlDOmerWjPg51U3j5QzTPQh/06IJACyks6BLQp/w598+UM16vtFVG8FzEybaS3pM9C5p/MtXNP5lq5p/MtXNP5lq5p/MtXNP5lq5p/MtVIETgyo0w3Td8oBlYqP6pvu4sXZg6/Pt24KV674RxKHaBKPO06j87pNeZbinTlsUCpMNxbZT2cWLswdfn27cFK9d8I4lDrOl5eyy+w+ZLIjpECeaUwzmwm1wBssO5VcZbOVgJ/dyDSZNInXIKDWOJJ+yVPGWfdKc4PsbevS/gneUzL8k69xRbDdMjolLzNJMg6UJ1h6bFAMpThtsHRZxYuzB1+fbtwUr13wjiUQw2V4mPyRWlbIrkcHxVyOD4q5HB8Vcjg+KuRwfFXI4PirkcHxVyOD4qLnUGFWMrRSCLv/6iDQIciSZfKXdN/vU/kMK+tL5QZfu1BpoEIgCVtJcUC2hQ5gVZmkE2KX8PhSu5S5GF8hhVD0GkGxH+QhZQkf5g2oj+HwbWlp8ubinOZQoWVafLlcjg+KuRwfFXI4PirkcHxVyOD4q5HB8Vcjg+KuRwfFVKaIFZgrXtzdmlQTEzqgn2cWLswdfn27cFK9d8I4lDmwOnH6eiw/O6QGZ2KdK2XQoIdnYsT7OLF2YOvz7duCleu+EcSiVBPy9tk+g+aJNwXo4l4E5WWyl70SGRLGh8rLiosQQonkmk29MkazIglPR0GRTcl+VdZqmiKjz9WTb9Pm6SCaoMJ1p6LFAANaUNtumzixdmDr8+3bgpXrvhHEo5odXGCLc50gbCouNa2crotjeqSzKF2uWZQu1yzKF2uWZQu1yzKF2uWZQu1yzKF2uWZQu1yzKF2uR/lODbb7Cqpg8Ghsqsrbk/J4LGMz8o5W1CzgqwzGUshvBQtnY5TEHgsmtWvN+lWNoXecsyhdrlmULtcsyhdrlmULtcsyhdrlmULtcsyhdrlmULtcsyhdrlSMayiVMW6tVLpykqP6pvu4sXZg6/Pt24KV674RxKHN4bKP09Nh4k4sRrBpcZLyeMi/chk/ivJ0Qj1jwPdNXwIfUX7llUxw+4xo981l0ikO/3Je5Wh7vvRXH9VbRoR+82aso0HuBWQYfdXo2d1eiZ3VbR4XcC5LB8MKyFV+6SFkvjt2Rnb1kUyMNtU/osmPCf96HuKyoEJ/3Im8LytHjs/wBFb/1mqrYza31SZHsw0kuFYYp0xpsUAtEhi2yGizixdmDr8+3bgpXrvhHEodcn09khqKdlGIW3th5RG5eSgVGaXZRtu/c0BFjRSLa0skCRA6Dr0pog0U1n2iJVFo0zT8VdBnjKwt6lEiRRkseGzA6JC38VCLg7yt37605ha8kGVnV/cFDcGvOMuaBarGRJzIlLRf71WxcW6fRoB060+sxwaJCUrQbZ+5FpY8kGVg1kadSZUaazqpkRcCQP1Tcl7nkCwACc+tNLWxHV7BZ02b01zWOdDlWNloEp6UGlprTMy0WC07lVqRK1shIZUp/2lNMNkR1a67TJOBa41SAZaT0Kq6FEbt6v7k1zmvtE6srR+5oiPAe6V7XMGif6KUBkeHoxLrDf0T1IFkRkYaIrap7RuUfHUd7HYt0rK7TZ+71Bc0tOQM3ZxYuzB1+fbtwUr13wjBM3KVDZjf6hsZ29PUqNXiNivdGkGuEmCw6LVi2jg8M+qGOkqzofBxMpTxblMw+Dj/tuVZjODmnSGOTpDg/Kzsh1qdDb8hY12dVYbU0xG8HuLbpsdYq7ofBxcekw3JoLODpMM2io6xA4rg2Y/plFlTg9utrCsqFwadsMogw+Dcq/ybrU2uzg51XNmx1iaKvB7apByWOU8Xwd4bl6Pg2z+m5V2s4ODtIY5FsqA6bi7KY7T/yq2L4NrXzxbkTEZwc4uEiSx1oVsLg3w3IMezg4tFgBY5AiHwdMCQNR1ik6HwcRYPRu6LlfQexypRDpMyrz/wCvTsUJ7wYceoKz2GTpy6dKtlSWarH7j+COLdaL2mwjqwxdmDr8+3bgpXrvhCAkXPdmsbe5VqaQ7RCGaN+Ch2AzjytGo/O6S2YE4TrTsUATBlDbaNmAEza8Zr22EIMpkqpzYwuO3Rgi7MHX59u3BSTKs4x6rW6TVCL4hrxn5zv0GrDRMVWljsuWiR44qBpyHOt1JsEh1Zwm3Wowk7yLaxQZVffKfXJPmyIWsznAWL0cU2ysHSvRxOwWXa/tBQ6wIiODSZCy2Wv7SaGw4mUJ3XBEAHF2SMpzv3KdV9X61mvcqlSJOcjYLDbuWZe9oa6VhBq678pVmBwHRWF/HpNYyGKdM9SgVTMYtsj1YS1wBBvBTYDjOE/0Tj0fZUXZg6/Pt24KXEdmw3yZtLRP9OJRhRYjIcXHZJfsKimLHAmM52U07AuVwPCXK4HhLlcDwlyuB4S5XA8JeUj0V/RlQZoPNLgTaLPJXJxEaizfnHEXrJiUQf8A50XmNRazrziL1ZEofs6DxGowIH/07NwVj6H7P+9Ca5saigtEmkQLkTjKJM3+QTnY6jZQlLE2dO9elongKyLRPAUoVIozBfJsGS5XA8JcrgeEuVwPCXK4HhLlcDwlyuB4SpGMpUEsxbqwEPokqP6pvu4jmXH6J0HoKxlxcwEjB1+fbtwU5k7RHn2tHEodZ0vL2WX2H53STIOlCdYemxQDICcNtg6LOLP6wrdpng6/Pt24KRSvo42pF2SFvVxKHXBPl7JHUUD9Y1QSZAJlermtBJeAJy6U1tRrZvI9JfIyQc+E0Ay/xNIB/VEYpgPrJ/V/uTGMhtyp24zR+qMAyccYReBZ+qLDDGdVBr65W6F6EAa32/R/uTMZDDnVZlwffZPRfqQiiqC+Yaa8xcenqULGERDGymzIbIWIeTbWtyTEXom+J93V9pHGAWuADa129HIBl0mJLpI0alFe5lXFG21SeGvdlfT1nchDqVTI2zncZJkF0i8tJrT/AEQJsiVJ1wRaapOjUsoSFgqtM/pSsQENrWTka1a+1v8AcpyAEhMF4stv2a0K0MCf2/3oTXylPQZqkYvOxTpWalBr51QT7OIKLDOVEzj9VvSogFwGDr8+3bgpXrvhCsBdRtV8L/hBzCHNNxGChthPxbzHsdKcrCudB7OFzoPZwudB7OFzoPZwudB7OFzoPZwudB7OFzoPZwudB7OFzoPZwudB7OFzoPZwudB7OFVfwmCJz5OFzoPZwudB7OFzoPZwudB7OFzoPZwudB7OFzoPZwudB7OFzoPZwudB7OEGM4TAA/7cLnQezhUt/wAqqsNY2uz+roUEPtdixPsw4mjtxkbR0N1lGZrxHWvfpUXZg6/Pt24KV674RgL6G7FuN7DmOQZSmmA7XmnYVRKgvj22TskfndJBNUGE609FigAGsBDbbpsQxjrTc28nqXTRoX/mdyqwm1Rgi7MHX59u3BSvXfCMNVwBB6CqN8ieYXls2tk3Ho3Ly9HrD60Ez/C/3qrDiCt9U2Hs4jnMEyOiU0X4o3ZuJd9XepsaTKf0HVX2N7OlNaYFWcpkw3dY96oxiVml7ssNaRIVTenQ4UMxMWBKs1xL7um7SpMh2TAthO7UxhggEicjDcJ5u89iEPExHWXljp3qG18MAO/puHSqW2o8SGQap1izsChljIkUxJFwIJlcOpY0MiS+qYbpXN/5RcIOkkFjrJSsTqkKeSZEQnaDuQ4taI4NGklUgQmxIrTDdNzBYLNKgziiDDxYkIdriJaUTDZlG9xtJ6+JF2YOvz7duCleu+EcSihkfEux1jpT6CudH+E1SjcIF4+1AaV5PhSKNRZMLyfCVfawN3rytJpI1thMcsvhp8P1sEM968nwwXbIbVzo/wAJq50f4TVzo/wmrnR/hNXOj/Caq38TdWuniWrnR/hNXOj/AAmrnR/hNXOj/CaudH+E1c6P8Jq50f4TVzq/wmqTuHRPRUbNeSp9KibKMB71ZTCwfbDZ/gpP4Wf1QgFX/iDnO+s+EHH8VTIzqXVhye4gf4m0KBK7Ft93Fi7MHX59u3BSvXfCOJQ65Pp7JDUePN9HhE6aqyDFZ92K4fqsilx29YPvCspfehhengH/AGj/AHK+jnqKzKOf9Z3L0VH8Q7l6Oj+Idy/+OO1eko4/0E/qraUz/TB/5WVTYv8Apa0fosuNHd/uke5ZUBr/AL+V71JjQ3YOLSTYZQnX7FAJEpw23bOLF2YOvz7duB72R4zK5mQ0jcuV0jtG5crpHaNy5XSO0bkwvpMc1HVm2i/sXK6R2jcuV0jtG5crpHaNy5XSO0blyukdo3LldI7RuXK6R2jcuV0jtG5crpHaNy5XSO0blyukdo3LldI7RuXK6R2jcuV0jtG5crpHaNy5XSO0blyukdo3LldI7RuXK6R2jcuV0jtG5crpHaNy5XSO0blyukdo3LldI7RuXK6R2jcuV0jtG5RBCpceuWmrMi/sTBEpketK2RG5crpHaNy5XSO0blyukdo3LldI7RuVV9JjubomN2Dr8+3b/lPX8wvV6vV6vV6vV6vV6vV6vV6vV6vV6vV6vV6vV6vV6vV6vV6vV6vV6vV6vV6vV6tOD//EACoQAQABAwIEBwEBAQEBAAAAAAERACExQfBRYaHBECAwcYGRsdHxQFDh/9oACAEBAAE/IQZEwVGEOJ4xcUsTTgwLrSTAMP8A0hw7IF74uU/Liallzb2pask54f6U0wIEbpZvMH8q0gWH01MJYZC1R9JZS55eDQ40IPMAbhSt9a31rfWt9a31rfWt9a31rfWt9a31rfWt9a31rfWt9a31rfWt9a31rfWt9a31rfWt9a31rfWt9a31rfWt9a31rfWt9a31rfWt9a31rfWt9aNsTPHwkmJvTUmRdCPhjzaHalT5uif+Tj8DvuSR0nJS6vLHMzP7NSkvlIEs8jV7BHBeD7h0pOhrh8bP3aiIw4ixiBFhwX6oWjV5k8A/KkdyWJdNNrW5nz5uieAYQhZg5LQQmCuZYNeNb671Bw5sanWhYjSbg/tBPCVJB91vrvW+u9b671vrvXLtMUmjQTgseNb671vrvW+u9b671vrvW+u9b671vrvW+u9b671vrvW+u9b671vrvW+u9b671vrvW+u9b671vrvW+u9b671vrvW+u9b671CM1C3c5+GPwAFGua91NRIPgzpITmg1Lm5qDqWasMYuMGSwi+KUslgTMb2M3x1qVeTC1mLcaEcIyDEGOHn6J4dapMRCJcRa39ks2oBQsRJMSxK9kW1vTM7sFFbiSPugdSKXKBqyuji0C2P3EYMTZNKYmCikXQyjlMVAKIjqLSsEtwrMiMOwCcTNmkTtBDIbDlRjagEIw/Bza9TNm6ZELI4KMf8AV0T9PDH4JbOLBYSJ7RNTdkBmP7U52Xj6WiToiCSzJ+0kBvkEZavSotLkBr71JJchCS92tDsagZfN0Tw0LV/uNby7VvLtW8u1by7VvLtW8u1by7VvLtW8u1LAqyr4iLnL/r6J+nhj8CiEUI5te1GAArS2SBeehTS9aSguROtExIyIiIQ3xahYlZc8szrrSMjhdMGZVB0IhaxynnRNklsmWGefm6J5UXLASrpRAml8kb+hjjUEVOOsHJh+R/8AA6J+nhj8A/iDUtLPamC2GAYXPu3o5RQVaN3K249PonlRyPlxwajDEy6GUHITGa0nISTJearp/wAwtjVgQicHM9GpUqVKlSpURBBmQnGTlXRP08MfruieVFxarZTpO7TmidF30P8AolC+27bgWblITRrADMQMVRKGAVRARBrNKtIDJAwzTFt9KbaTBY2WvjFyr0Rli0tWOHLw3PjTon6eGP13RPMijJ8EXsYOcL+HGhQClGp/0SsxpN4u1nm1bAiAEYoHHh91KkSFCBKSRe1xQBcB4R45v8q5A2sFFhotjFFCBwPVYzi7bw3PjTon6eGP13RPKipGFgwVCggHE4+BB8VL7faE7/ZJ7R/za9nY3uE1vXtW9e1b17UVdURsrzFq5qniQvMXrevat69q3r2oscHjpV0T9PDH67oniimMQz6uV6kok2ah9lSHK9mLV7JkoXA5wW58aBASZFtpeVlqOT1VdCbDN2LXKUTJq4Z/S+wVKXPqQGRbapEzb/oBU/GEwneKJUXYIkhfy9E/Twx+u6J5kVaRvAnh8fRvc8IJHhSdqDYxIjVmy1IAZJQRvGa59cmyBhfFyuB+oWcXlQxCtgil+Phq3XZIybipyC4Q/XOrfhhuhcGanXvA5RE/p6KLCwyhSeGm2DYClCHl6J+nhj9d0TzIooISC4omobHeobHeobHeobHeobHeobHeobHeobHeprnkJh0L+znzp94zdEMclA3MyTcobF0/tUufXGSAnHI1AOMWSOBEVmR7ZKK96ZjFbRGEfTptIYwyRfRHL1q418GFnCItji9Qe4A4SA7FQ2O9Q2O9Q2O9Q2O9Q2O9Q2O9Q2O9Q2O9FwISGRD7HOG1CChBisW8vRP08MfruieZFCUo4kOvx/67af2TOvzaaBhx0i8Jt5eifp4Y/XdE8yIDBIMufIf30mQjlYKniAKhAbi/JULiGclONaY2E2JmeHUqNJqXYpM/jXR6Pt3oYZEcB79q0hEuP56SeQgWBlrpTeyDV0sNdfL0T9PDH67onmRM2tlQ9pj3oQgkB9kn56JAgQIECBAg9fEVl+12niEUQ7ymhOHXIMNc3goIBjIgLKMc44qBpJCa0J9OpFT9VTpq0bBra0HBJL906sDMc/THpECBAgQIECBAWu5DSV29aTYPL0T9PDH67onmRsGAOuOt7VEiJkML/wDVkgu4vE8VrxzBEPL0T9PDH67onmRQYJQly5B++ZZe7lfKocsBgkxS4X3rRrzWJBIx7uJoeTLgCZRBa97WqAoTIUieIc6K5j2F9GL5Od6aVOylEGWlngpV6hInDlMZs/TRC9oGa/Lmq5yUjoIMWvkxxpnYiBqP0Cl8EINyMQWOT7pAqSTOjEzjEa0qCQyFLoWve1HUa7AR7jXrUhjmUBcnKcE80BFeWITtUxHSSYQt5eifp4Y/XdE8yKM0i8J4pfNhhhhgDUIvJGa4iwbtdQ5qwGIQUus7TSXdQ3pZdeLUMuOGlZnPLFG+GFCcODyPqroVkrOpnuUrdueJATN2F+6BULLGyquvNoncVAyRtFmF6Vpy0ZhmV1VQaoQRQQxMTY+qu4dCuIJ5KVnDMIJd5/uqMCCAS8izaxVtS8yjAavAPNhhhhhGGF4bg86inFGhBAWaeXon6eGP13RPMjdnJFZLNz/6zg3zgRHOa/amak+Xon6eGP13RPMioSN5EcPh6EetARvChd5UUJdYLGE0aCEmAMPfnV1cEJGRqbWkDlET+n3QIxwg2atBXhCywvZp9EsgyNw0hcPyFCwr7VQoFkbCIZhn4ay4diYeHoYcDkgL81jUCSRs8vRP08MfruieZGfAiPDEvCp0YsGTM5VymzlXKbOVcps5VymzlXKbOVcps5UXkoBCyrrc6ZilbRmEfF0o4IqlzwMX+qYYFklL4fVzpjpAL47Ro2IqEbLArjpn+CMBw/d0pyALdbiEm9zzSK+7cphlzFPzBGXckvi0iKfUcy8PKfVSt+5SLHNXKbOVcps5VymzlXKbOVcps5VymzlXKbOVBUFW1lLEXrSbB5eifp4Y/XdE8yKtI3gTw+P/AFwxLDKFJ4abYWAUoQ8vRP08MfruieZG6PCi6WPl6L8TFcszF45P1SYJoiAEnF8/astsS6X4HN9UrKFAEyWxzL1P3Zg0Mza1IrUiZ0ImccKO2uCh1x7/ABSMSL81rpDa2GkFlAnSfT/CmKClTR9+iCJF6V2zREko0LFvL0T9PDH67onmRQLiTQ8Vatn/AJWz/wArZ/5Wz/ytn/lbP/K2f+Vs/wDK1YwaLoiMZfdL04gBCQ4TL7omLTCcKI2xeX3SY7AWgRDoU1bFL/tVzeCzQiI+qF7PMjlJHD4pTEkEMuWXnK3zWcg2ZlJSc5WoWi4FieQ2Pitn/lbP/K2f+Vs/8rZ/5Wz/AMrZ/wCVs/8AKtO8cZvM7W/NMshx4iGE+Xon6eGP13RPMiAwSDLnyH9/608hAtSWulN7IFTMsNdfL0T9PDH67onmRsHEGmOl7+kdhhLRcIWy7tZPLQqjCJJWc/HvTa4RAEpCDMWSuLU7YEmcClLBHEsZYjOX9p8Vry4ss3h9MCEGzRdvaiIQAOLF/L0T9PDH67onmRFygpwQsk0HQwso31Wr8+iWWWWWWWXPVlkCAakMaU2cTIxhpjFWHYBxVACOS5suWpskRc5MNGtgJ+Fmsg/b0gssssssssuzrzxCY51uHB5eifp4Y/XdE8yKDBKEuXIP3ycn7Eda0P2L6I611rd9Kippu9nJSOwvxqbdDxp2Ff1WHXt/KsMPY1/lKlz9CsmPejIe/wD/AAqDFstmv0a+iiuiYH1n1rQJwcfvsVoE4qP13K/bbPVTfFBlfxiYqyxCdqmI6STCFvL0T9PDH67onmRChLHMl16UG4yweL/VcJYJ3IYCGtJOeiBaFBvvlQ4XFFojIyl6ZyDE6AYhPE1yUJoyihJKXTKiw5BaWlAm/JWCCeLvz2NXawWRAZn2mrE+dJUkEr4IVYqLEl3YBU0iMgvDK+nDQDDMj4U+VL1WM0iTfNDgeokgtA4UF+IhF1hd5adIYodZ8VCyY+BgJ9yhIjSHODF/sipOCggJu1PEqSpCIxBGWblSwQUmEzDiONhQM6+lBBk9xREQSoi7BeCqVXgXBJZFpmbinzkk7TKEt5RmpamnsKl+E9kDC3Ly9E/Twx+u6J5EQZAF1dKl/LMGz+qst835aUvlatUKICHtVqipEYMFKlTMrcll/D6q5GVhmXP3QYCMXU/bTYY0WOIfi1ZYGWfD6Pqm+RzC4/h9FJsTBE+Jwqe9CRulo/Kg40iHTB+Ae1dYN8f6/dJpGHiJv83r3pEvh9H1RoCIAmMHtj6rija/AiPw+ioQgrIixBH5QcTECkllv7rTwngsVU91ETKWoTxqQbzZ4DQ6Ikhm4RH4RQgXkoDhFAmc4QxHVq35IHBg+KCICDfmk3N3oOecUTdb6WT/AOk1o4NSF8UA7rDPlq549E/Twx+u6J4og4DZx/OeKGa16v4/e3KsFqUpG8iOHw/68OEywF+axqRJI2eDerN/b7NqepJAITgdXR5Y8Oifp4Y/XdE8Lat9sTwnf2GrHtB/4Dh48g39dy8710W14P7XDrsRdfXTLTdYSyXL4vyrjjxiBhxcUpdMMWFjWeZTMZqYQgZJnSKZAOa4Ot/BQFdCG4U+j/7RDKV4hJhYbTDSeAQTOS61GHZCgQTYN8396nRA3EEgjPFUFDdYLcNpJ9FYxbKCCSJy84Kn4wmCd4okRdgiSHiGNoBIlNjOhF3mXxh5R79E/Twx+u6J4XjYNwkP1D78hqwFVp+afqnXgR14W+q/2n9r/af2v9p/a/2n9r/af2ni2DwJyUoaQHCWaEbJAu9/GoizMkC15/Skkcnd7qFKCYmzhH5aoVsgCJzRx/CghGkQg0iPx9FWwFgJ4HCtebKjdv8A1+6Ak6LU4cny+6uGYw7837oxjjB0iPw+ikTIygpr/af2v9p/a/2n9r/af2v9p/a/2n9pCNWhWSQvW4cHkKbkJ4Pf4GKkGciBkk+/DH67ongK4TJyh/j5Ls8KLpYuX/WKpF6V2zFGKVGhYt5FAlsFasbL2hfvhj9d0TwkJ+Rb/MvwvChAIyOHxQlKOJDr8aNGBugDqtMtIpCTDNkgzZxQfQAstkZPZgvWIhSSjJWINbyqxIISwceDEZ8qaJE0hJZJAcWKVKkSxAxY4NaQOWWAstDg55ozWKW2LLEblC9j2Ca3IfpUSFTAKIOj+rUBrrgkEidW60AQO4BERxL5n2ho4jWI9/8AD9NM002jhFGLNfarGicJrkw4Bx8yrN0AvyxM4j7i9Rkj3AMEGOGVO0IsIpRGOWsVKNSATJ7OD0pswLCxkhq1HtQw5MDJzqLjTpUAUrrOOCnhTS4kiDYaJy+lLNo6MQ3xjipERDMCPszTQCmCSllFtaSBhx0i8Jt5EcIdr53zg5vKgTgIBpc8MfruieBkXEqQZvuYE/Br1ntg2oyiRPBYIEe/zxrW1+9bX71tfvWx+9bH71tfvW1+9S52/Otz962v3qzG3962v3ra/erExQguMmvEra/etr962v3ra/eru3+62P3ra/etr962v3ra/esBKiTvWx+9ImOaAxbmE+MkUmkAqZlhr4wEQSyt8XT2y0bFTILvscDSuifp4Y/XdE8iIVGSSfcNHmfM0kEsC5X6fhh5VdOANN0Xv/1gZg2aLt7URiADixegbPDHwxdrTRHMe31vtURsssZXiurz8Oifp4Y/XdE8qKYbQhI0zgQlyPCb0pqD/aXH0pIT12n3VzyOljQHq4FYxIkmS3xx1lPrJo1BLTyZwX50lvQJG3/0YtQfslLrF05i/tUKYiMYuhl+ilscSJsMeyM2m0UXK84DML2jNRvQL7+hqcl+qSkKrYAiNYcN4maRY7sCr/QW41xASj2D7N+dNmKZbSwxxnP3oaqEdavg8cZq1zmLzDfmCI1pyjqcI8qwPzCKNolb6UsoH4mhWwUWBEst8HzTwBkT7pXfJ0T9PDH67onmRTMjzSTpEZ97eB3JdUFRLDcAHsLaroXL2inTqnoz0oFhHh+JKkwfFvmOOOOOmDhELwOE+gccccccckSiUQ5NqK/JefcSveJ+kBOtT1w/2qmwHAJ8yanXzayYWxATTFTFkLMWeXon6eGP13RPMiFCWOZLr+bJeubEhn7r8Qd9WVtE/crjv3X5FaD3JUg9g96j7B8Cfk1O/T5HU+zvjWivwfrr8F7lreP+4ollLjf/AFUAfwi8qmiLgSN+SnFEhBAWaeXon6eGP13RPDg5fiYDXkPIyZMgW7hDCJ+3/WyZMmTJkyZMmTJkyZMmTJkyZMmTJkyZDFFQRZa5KkQCRrJi+fKZMmTKZWMqF8GP13RP/Jx+uFBMlb4VvhW+Fb4VvhW+Fb4VvhW+Fb4VvhW+Fb4VvhW+Fb4VvhW+Fb4VvhW+Fb4VvhW+Fb4VvhW+Fb4VvhW+Fb4VvhW+Fb4VvhW+Fb4VvhW+Fb4VCpj28P/aAAwDAQACAAMAAAAQeInVDDHDDDDDDDDDDDDDDDDDDDDDasHXDDD48w88888888888888880DF9NADDDs88ssvd8888888888888DJ5SwDDD88IU8888888888088848DDDDDDDD88M888888888888FRI88DDDDDDDD832z38888888888808s8DDDDDDDD88o8888r0Yew8888Q888DDDDDDDD8888888808088888E888DDDDDDDD88s0888vv/c888880888DDDDDDDD884wwnYlE08ckSwwc888DDDDDDDD8888888140w40888U888DDDDDDDD888c888+cMfv8888U888DDDDDDDD8888888t8xQw8888c888DDDDDDDD88888886yw888888U888DDDDDDDD888c488so8AU8848c888DDDDDDDD88wMIAAyjXMF8NID8w88DDDDDDDD80Y888w47y9y+8880848DDDDDDDD48s888s8MccsM888U8oUDDDDDDDD4Q448MvIksEh20gtg8kcDDDDDDDD8s4484w906zzw184Ykc8DDDDDDDD88s8MoU88c888UssU888DDDDDDDD88s88888888888888888DDDDDDDf/AP8A/wD/AP8A/wD/AP8A/wD/AP8A/wD/AP8A/wDD/8QAKBEAAQMDAgYBBQAAAAAAAAAAAQARITFAQRDwMFBRYYGh4SBgcbHB/9oACAEDAQE/EGlYdZuiGTSyw6w9zDsu6FfqySsvpUuiyQDBuOf4/S7Jy7rDeOXw4UuVk8XIoSUC9/lDujkKqpBzQFkwZk5BdCAwuOqLtG6/Gnssm2NM21U9D1vDJc6kugAAwuIdYU6HtcVjmuSjjz8ayjUtRGsb3GlBSNJs8OoHKYoTITV7XJmtwd737WVhHLZ9ILp534WdJbQyGWLVlQToA5b8e0C4B6rLISPtz//EACkRAAEDAwMCBQUAAAAAAAAAAAEAESExQfBAUWEQoTBQkbHhIGBxgdH/2gAIAQIBAT8QsmllbVSTw6uyu2pFHUsAizLg1+iqsBsuFd0IMEAAXCM+OwMufdGrqoI3Ty/l4oUKB6oW8QSWRLEBGAiG14oHyP7m54QssnPO3fVVD6sgEMU5TaobqR7h+zqyvwrfUrIUlRbS0VyNtYA1FQMhFEwRJJcqunHKuNs+FmfrVEgBymPmgoHQqfwPW6jOylQ8K0oc5T5V0Kh8zOMzPk8KNHsEJIAunDOmPQxVMRpxFNQId8zKK3QOwG3dHhXKHPQ9JcHSGFdWhOLZmURDIlsKJpI2Qn7d/8QAKRABAQABAwIFBAMBAQAAAAAAAREhADFBUfAQIGGh0TBxgbGRwfFAUP/aAAgBAQABPxAVU1N0s0AUVBKMY+Lxb5n8v29dDEelwGrZqpd5u/Y66EQRo7J/6MamWQuZT2jrKQ8+PXoQiw3dDM6ocbMMi0YM6q0eskpwSE3YNWyAhp64Mv4++pgCBNymQqUlL66+4tMEmzA/mlOlRp7bwJ5jLoSdS67vza7vza7vza7vza7vza7vza7vza7vza7vza7vza7vza7vza7vza7vza7vza7vza7vza7vza7vza7vza7vza7vza7vza7vza7vza7vza7vza7vza7vza7vza7vza7vza7vza7vza7vza7vza7vza7vza7vza7vzatWCLTiPXwSKAti5dYXwpYOaCno6CEMHly6JiCjEp0RPN2rr/5Ps/6fBUyjBQqMM3qmNAm7NmDYYEvV6smkWhg3H2WFl6emjmoFSgSBFjhzj70kAXDBwOG/hN9dILMhwpVaEbsGZYQCXiZDZZOG9mj5R1BY8tkIO4cvN2rr4YjacIoAABVdudKozAEwY5oPz4XTsuQaKWBvcONGPiAcHqJR9HOkkdx8bsG+Xbdu3ZB2IZ6bWcMmmC/2BVB96v5/6rt27du3bt27du3bt27du3bt27du3bpsXUavWnw9n/T4Dj5lQAUGEqLlMddHdNhMgSgYEg455AQOGxhYYgwONl0QHUUiRGEWuGO3GrAHnKwKk6iBOo0agw65g8leCa5gwJD5QDei+sceftXXwFLrq3g2ATiDzHkFQXGUpqSykWFipIiinLIkJeuWLYFgRtRRUIyApS2v6kpWZqsLghgnsRVxcZwlwLG1AUWLAJhImlOgyg5LIbMEqZ1f5CYYjVNpWy5u7x4Ek5IBFHauzOqvbkmoHCCiBW43s5pW3VDw9QCOyf8AZC9n/T4DGmoHkgYAS3akzq2ghCrlnTD21Edi9KMq8uzHUE9QImx9Gj1ab6xIY7uFE69R09NO21lh0HBenU0OM64qwgWEXHOjWBWgS0LXGfN2rr4Y64gq79C/SuXLly5cuXLgbSPdNiJpnKMzTGgAAIGx/wBkL2f9PguU/wBKKCbVWnLF1MvpLQhQUawDG2dLsiJ3qbyi74XnSLGQGCABVlhJfTQCG9i8Y4C/Cc6cygBMs0Gc0zh0S82WoTJGEXOijV8AEK2C16bZ383auvh7v46EyPQAVXQ1OVesoTFIyMpTsm6M1yOXkgRyArBf/Bhez/p8FtJgIHEt2Vg0I6jyEAYa5lPszRrX4YQkWimEJ6D6fauvh7v49STnVBGfzoNWIjCZQRWDJMXSZmTa4CbI5WGWaH/LCsDJEoyBvPU+iOHDhw4cOHH8hgrVQmNfx4wvZ/0/X7V18Pd/HoUVmBZdMcZYUbGswlbnIEzRQGpRI5VZ+/8A0XA2rYCiplmQYzRKOlbA8AjS2EUWZWTIYnLCDGLRwNKYTImUMBjAchZQRnUWdUWrBj0JdhZdJBECEbEDOFQvEzPLUhez/p+v2rr4e7+TOCIApIfrST0NBtLaohRPRP8AouCgTPNwLFOCBYDAwakC4q4QdVAu7S1ms5J1YdsMhjaTZRYQiQ2wsJyZOfuaSRRuBIOMzNqEMaq14RRRJNttjjGCeSpC9n/T9ftXXw938fdcjCr6Hrq36UNgCvQ/Vp51IB9/2PvgH/M/xxbRcDLCzoeRw4cFITvtGnsObxLrgwk3EW3HN5vkcOHBq9CcMssFld+vjC9n/T9ftXXw931iMxIWmNpdl20MWBA0QepWaLuS/ckImC6Akuog4OkitxKMAaINbzbNFKbpccUBoxYM4HUxCwRmFBhw9xnFwOeRmuFQkVbioH/QqQxVpTIWGZc6cqKW2IjimZ54Xs/6fr9q6+Hu/kxA7QbxoHdnY+jxIGf1gi0VxNP1GwzwVleOMjoBpg1dyM5lL00BdFWFcVyAS9ddddvwjgcQjXGdRTiLtnBVv6Hpp1dXbPUEUi1LNtFKCx0gjODALM40mJ0Am4E3PHXjQBbS5BbF2E/J9EKIQ/OgggzZRnR01GMZgAUCs5h54Xs/6fr9q6+Hu/k+MQOXFDr6/bX+01/2mv8AtNf9pr/tNf8Aaa/7TX/aakHOehyQwFxIM8tAZk6bCRBZGuZa2JLUE517ARJRsYbrJaMTJ8YdBJbSY0F+o8xSZFC7S/xo4sXTBWAMK7PTbWSAUIogEcQlspyafkBXqK2kOxESPohZjbghVoAqMDMZqiOwO5EBuaiZPxr/AGmv+01/2mv+01/2mv8AtNf9pr/tNV5KPSkFxAbw3Trqi2aIKRVYbZXzwvZ/0/X7V18Pd/J2FIshhmhj0I+uI/8AVzJQCEIDM9bdL+R0Y4HCZuOPPC9n/T9ftXXw938m8pbpVxRnjcZ2sT6MIGQSuDLjVZwZzIuIV70rrCckYOBcqZ2kTOdHoWiVQYXe4PU66QOxiCo1xga+mpOSkttQc8oPuhzpUji0yiOeRP2Hprb82wBOqT+F+kEVqhRJpDLlQNSj3Qkowplzc+eF7P8Ap+v2rr4e7+TOjkPZEyLOwpn850ZTixVicYGfo0qVKlSpUqVs2RaN3BHZxqzaDII7O7WflCYmIZ2oIwkIyizpNDgdaoEkhcAGmLV116KatxSEGLgy6gYzJylFc1eNN8bRXgY3hRRaQCkiEbqLAW7rVhCrwB9KlSpUqVKlSpHW/DMTLaWvoanKUwqTz0L2f9P1+1dfD3fyarNrO7yKfgr6Y0GLAAUGwvT/AKggxEJOZCgssqaJJAtILEoYs388L2f9P1+1dfD3fybykutXNGedhjewfLDTBQCUykgjem7DR2NFUaSYSEBhcWaZQG89Eym7lgNmj1cpjkyvvGcaFTiFEFMcjU26OpIskoABhAtsOAlxqMQNGEySQbWU+zqmE0Mc8EeBv9h1i/mwmXKBBBShjqadE4FKgEwxsU4ddZRAqKgO23u9UaMICHIZXDvhoKroJjYzKWsAOcM4o4y2FMdUUunyEAK2dhoYxnQ4MzISBIBaINKXzZORAgpRkpi6zcLFRCnLDF88L2f9P1+1dfD3fybc11HLiH39Nd8f3rvj+9d8f3rvj+9d8f3okEYSCGDkB/WqBONAbPKlM677OMaWxkJkWAKM06iHENLjEAG91pFGbZ2mg5SXjAVnKHhjbUU1SpMEBBLCAiHfWJiuFUCt5TPwtMhExodJUPpG5yK3RTSPmQTHLi2zNsaWI2+RJ0VREs++kYeAoFQ2NF5TO7XVU4gqcw35kA009HIm7oWAJu9505pN7oCzPgHBsYxohhRQIMOQmN3Eu9tu4DGO1UzF6y7674/vXfH9674/vXfH9674/vW3eF6gjJRuMsclwfe6bVIDAHTjzwvZ/wBP1+1dfD3fyYIgVPp9+n/XA3a0nLBnYk51KlZp3E/JbfPC9n/T9ftXXw938mahSTfOTuxufQTgDOlMYGUYeu81PJ1vaRDwJGZHQzgrCUIxgGAVC6FiAZathLhdDYp4slEXYb8NAIKwjbC3CzbW7jJhgBPT+J0l6IxqLGuMfwPTSoUaByRRmcxE/DrJoJGZ0t9H+NOTbNBhkSLzcaMZqrNt1HD6fQinJlMKuA5dIy1XCIUeR6+eF7P+n6/auvh7v5MVt/sI1FzfFDmarHkMgox1vbeYp54ECBAgQKo35lApsi2TOssEoBRAKxCWynJpFBAGIDU4ARHdzEq1UboalQAuJBnOqorQGBsPD4mbwzRSUVkk0cnJvtE0G1M/AO2knLcZb2A4sOy9hM5TGcYRqHTROTYAcT7uuiuTgqqzWyFDGoaMyubxSI7w26i6SZ81ggMBBUxt1+hAgQIECBAzpX8so6grDLJqemw+ehez/p+v2rr4e7+TESpBPjVu9P8ArTQhD86CCDNlGdHTUQxmABQKzmHnhez/AKfr9q6+Hu/k21CqXXS/y+iPe7gOAIVxluWMaZFnUoxHIgx9WgDr9di5QhldirNS3OCIBDiIwmNmhDIUcFEsPyS0m5qQkiHKJUwKtds3Z0XfRwHgxuWGVcGsbC0mdCAyQgjHDpR0G7kyZuCVMVGpUT6ixoDI4Tc5n0XFAKyEwIx2Yj6mjVZLQUiqw2yvnhez/p+v2rr4e7+TDgM7ODVYl6ffX+71/wB3r/u9f93r/u9f93r/ALvX/d6kmFdKXYlEaSiGmlLx3QeG0KyZTvnSo96p1HgCpIqd86jLU0ZgWg4Hgm2k/jogRiluQy5xNA3C0oCcuhUxtohkFiKBopEEEBxNQICxUoAw2uK77aCe4g37o3ItpWS6tj0D1uiUXLBXLr/d6/7vX/d6/wC71/3ev+71/wB3r/u9RSUM3BB9psS4Ybl0LtqLBITNxDzwvZ/0/X7V18Pd/JvKW6VcUZ43GdrE/wCoYjVCHJpDLlQNYo1Vkowplzc+eF7P+n6/auvh7v5MdVazuVqP4I+ufpNlQebAV1wRNwwUchftemmAmC1gI7b/AAP31iMA0QGpKRzOl0cjU6TEON+4m4HOsuyRyu9PBD8OTVXZ5LVk4ClkQmH6Z74AQIKAsN8C9B0eaoUAAFBjvkHzwvZ/0/X7V18Pd/JvE63YCKD0G/iwneEQK2j1GTN7rsL+tdhf1rsL+tdhf1rsL+tdhf1rsL+tdhf1pEio4Rze2qSqoCgQ9IgnSHTUtBBVVJwhzNtJ0PUJZkdm4XfrqAAJAiqGN1BXmGjAp0LWuA3HI8atJMkO7d6jnfLoWl+r/rXYX9a7C/rXYX9a7C/rXYX9a7C/rXYX9a7C/rXYX9aWCG9A52TCy4upx7YfPQvZ/wBP1+1dfD3fybykutXNGfwMb2D4/wC7hQRrZMuyx/D3dON/At/CL8g65d3SD83X+fYB7r31/JzK/wCGv9xK/m0VrPVP2OvYJens8n+tT7n20miz1+HXu0r+tJ176FPzp/UCP4tc7PQDtGNccuNcB/LQx+KGvDTyT+Ka1wvce4wPvodT/wCafZ45oZhgpRkpims3KxUQpywxfPC9n/T9ftXXw938nITqSGGKSHqV9OQJSerQjgBVUYNXUXGw052hc5juSJZJk0UKmu4WNnOsg5CmQ4aervjWAAAaLcLkEwEom+kavEEqcArQsC8aOyBCl+GQXYsudJ0syOhwo/N+mWLUJKAYGZCxfS6g2sIaYCiUejSmdZ0sZHQAm5dnom+4+FKALNiJZrGcmdSWojLiKlVSmHDiwJG96DoKEHAuTONQch2WVyZi1BpcaYwWnoO1iZ7DeLNLJCdRYLMFpLiA8tXSQjSlo/ydLS42yEL445C2lupwSRll2Q9SYT1keiOmyWSsWJ66SpamQDK6Jk6mqI/cDfIm2ALvdNkYiQOvE/g801dbni+DZIKzA2s0YObCKWJofTWQwIOGhrE4wXQQ6G92AGIcTjzwvZ/0/X7V18Pd/DCmqhAG6ulqVYs9eQv4k4Rpcpeg1b0hOFxl02WW7IIkMk41ySNodouwghw6UBaQKBFvKj1Q8a6JXdTdG2C9ZqxwQI1bFzeTq9dI0InchUpECd5skNKxGt+Y5LjKY5HTTzoFwjCq1n+YaqHxlk4bFlyddKAps/ABG7gD7AcaBocQ+EBzP4AGujIFSZ6n/Z11vy+GMvNnNy5V3004KYVoynBUx0dNELIm4a/hgTZ00u0rXVLmb8Y+noGgydgC2CZ4w+2NCv0OSABuUPqvXQdlnE3nGzHoL1dPVAxwDSraOb10CUIFDRFyDmaEFsSsGXO0PsA407jKs24TAwY9DRhBGIIgNwQJ0XrpivscFrubJYcXGgwwgBgaIFQgrh2V+zIbbavCrySyGMrgi8aczfYq9Wj8NdB1GF0YT0IJ9zywvZ/0/X7V18Pd9a+Towk3g4ByoOXRTgRltxnkOvqAc6AAAAQDjQiVpN51Tuxuf9cQ5mhhVwHLpGWO4RCjyPD4B8K/hEcjrRcjoIGr/MHM+G22pPIhez/p+v2rr4EnxqhmZwYU8I40ziknBDYn7D7lqr4j84rNzj1TfFnM88ARGjJYYTD+upaSQIcJWsZg2SXbThdTEDlvci8M40KGxvPxV3x2Q7/fRKlFl6XIbWfSvDpiMXWxTRLUc9JTOskBd4KAlSZdzFxh0qoaK4xgnq7WyInpRLga6QiOaZmnpwM/Q4AsuOLXZuKEVCGjA0ScmGEaGhE2Aiud2VMmd4lzlMORQAGnoMsdK81MLzqSH2fOpQxV5gUWGZS6cKCW2IZxTM8UYOKJYRHCacES4ENbuQu9Esg+KF7P+n6/auvgHEarCmPWCeB6nyAg2wDFglJcV7aMDg2G7APa/Fz5bly5cuKCAiMQ3FwwpzNPFYnEUZtQDfY+9DMgkFyjuDW3V2sSAUAJncB+4PGoe+gsiFWuMZ40yASQFSPPCfsZoB2z+VyByJDwDRJWAND9DD09I0rnRFHdBwy4Out1tMtZVblqX1dXTxKGgKsVM5+tayFY0CkVM3qn3XV1+NCI/N4x9PSNMnfQC3UHfz3Lly5cuJm7WGsNilB1OPJhxPJbQfDdEHqK/Gn7PCMCj8eHs/6fr9q6+AS9Qo/Yg/HkREKp9fr/AC/62NgayEyBjsxH1NESSWgpFVhtlfIjUBVWAaRsEMaSfpA8PZ/0/X7V18HR9tDlv5g9fw0ZYFBonXxsKRZDHNDHoR9cRjkAAAUQIGIYaoc6dOKInMLDoUwmdYY0SsJx5rkI08gUDQRSQG4xXGxgQuIZqsYoBRvh0RfmgPLMQb3JN+ggqD1WN5YQZBF0MSOt95W0pnUDXQB4h3jcoDFyva6a4vMBWYwBbYXLOMJpXKAxQ7CbjSZuILSMBYpulMzV/WHM6iGQSBV8kHYIBmire7AGucl0dCBhBQsYZGVl6NtJhvTw2kUMp4cqun8UaBHDJAiqMCgSayTITvBWZwDMyF1sARjuCfcHIOBjIkafUCCAZpTqxpgG7AHFgCo7VVGajDEXrU2yTEOQRzoto8zsFZsAlRTUP46gw5FoYhwG6WQUg0T5oxVdgZ4mmV9RFnjEORNLNZscMId0xG6e8zozEOEzcceR5ydudn0X3Ry0KkimAAHh7P8Ap+v2rr4AIFEib6xDAxxuQGeaHojoA2AslsiYTwBjefqJQ5YdKkUPXw89WXBtx6qEWHw5MHYNeqLQ210UQdHw9MHYOca/SHpr1lwbceqsuDbj19NLIk1C4B/Gtng211SKHrr7/Lvz6h7Br7rJtdfJc2uGQDXBAADYNcPYPtrr2pSa4wCRIqq5W7roDbUzWyaAUbH1pL4mikhWZKMKOea3xRoIRCtgbOg9AlTFvH6ObcBgMD8r4QvZ/wBP1+1dfD3fw3C4YJd0d703kbNRAuX0Qcl4oaBtMoNwtR/BH1z/ANY9cAQIKAsN8C9B0feIUAAFBjvkHSkDoknoRX7DpOsAYDpig9b93oRdGQq3RlOUq9fJC9n/AE/X7V18Pd/HgoQgHRHCazqUUGtB+1iisxTaGd5k6wH20Jw7dP4b/MeQ0vVS0HWZbjpq+wEUE64I6mxyXrcbkQBMVQphQugDEgtLtBm8LCK5ylxvBMRQm8TPB0cMNBjJIphlsMZ1C2s0hWONysih0qRmwGUckShByDOjXVSDxcxfsfuLpaaJoRvCRWQgMXRSk/s3Jo4BzzmdPuvblsDfGIlFjOliEFRVynAUbKKb6WVNrgIWU5DZDBdy2SmYYOnqTcTpWzJBa+HRyfZ8ux0Ji+641ldllsl4ysa9NQll6YgpJKVGzlomxz70/fyPmhez/p+v2rr4e7+Tvs2ymKWDu4bs2DpwcBZBC6lMaDHG33EID0Job1Y//CW9tbY43/FpqwChinvSaHPO4n28zjjjjipB6LxFEUFDHofQcccccccRDGVSDXQWdK+xa/g1yA4V32J/uM0U6hjvz7+OhwMRuH2Df1o0jr9l6R+HSrpIYMcBbd5dmZaSyXAxFhfv54Xs/wCn6/auvh7v5OQ3UkMMUkPUr6cnlQQAjhHnXPiiP+0U1/AENfj+jX8PBF7731zDWvjD0f8A5Ee2u0D/AC12o/5+HevuK/01e6X8Gv37+v4EGXjg5EP5U/h1/Jq0fguoxG0NB61rXoB0n+A8ohxJ3CRMJ1HfQAKqsUgNj0488L2f9P1+1dfAPuNZegiY5vJjx4xy+ZOSH4V/148ePHjx48ePHjx48ePHjx48ePHjx48a7Rc+mVCLKmemlCHoBFDVLcuevlx48eN0eSeERjCzHXw9n/T9ftXX/wAn2f8AT9dw4gj0dd34td34td34td34td34td34td34td34td34td34td34td34td34td34td34td34td34td34td34td34td34td34td34td34td34td34td34td34td34td34td34td34td34td34td34td34td34td34td34td34tBJhoQZ/Hh//2Q==;" vertex="1" parent="1">
          <mxGeometry x="1240" y="767.5" width="521.79" height="420" as="geometry" />
        </mxCell>
        <mxCell id="bMBjgCvYi46jGqGa0Gqf-5" value="&lt;span style=&quot;color: rgba(0 , 0 , 0 , 0) ; font-family: monospace ; font-size: 0px&quot;&gt;%3CmxGraphModel%3E%3Croot%3E%3CmxCell%20id%3D%220%22%2F%3E%3CmxCell%20id%3D%221%22%20parent%3D%220%22%2F%3E%3CmxCell%20id%3D%222%22%20value%3D%22%22%20style%3D%22line%3BstrokeWidth%3D4%3Bhtml%3D1%3Bperimeter%3DbackbonePerimeter%3Bpoints%3D%5B%5D%3BoutlineConnect%3D0%3Brotation%3D90%3B%22%20vertex%3D%221%22%20parent%3D%221%22%3E%3CmxGeometry%20x%3D%22505%22%20y%3D%22996.25%22%20width%3D%22385%22%20height%3D%2210%22%20as%3D%22geometry%22%2F%3E%3C%2FmxCell%3E%3C%2Froot%3E%3C%2FmxGraphModel%3E&lt;/span&gt;" style="whiteSpace=wrap;html=1;aspect=fixed;" vertex="1" parent="1">
          <mxGeometry x="-170" y="500" width="1210" height="1210" as="geometry" />
        </mxCell>
        <mxCell id="bMBjgCvYi46jGqGa0Gqf-6" value="&lt;font style=&quot;font-size: 14px&quot;&gt;&lt;b&gt;gestion des emprunts&lt;/b&gt;&lt;/font&gt;" style="rounded=0;whiteSpace=wrap;html=1;" vertex="1" parent="1">
          <mxGeometry x="45" y="500" width="760" height="60" as="geometry" />
        </mxCell>
        <mxCell id="bMBjgCvYi46jGqGa0Gqf-7" value="bibliothecaire" style="shape=umlActor;verticalLabelPosition=bottom;verticalAlign=top;html=1;outlineConnect=0;" vertex="1" parent="1">
          <mxGeometry x="150" y="660" width="50" height="100" as="geometry" />
        </mxCell>
        <mxCell id="bMBjgCvYi46jGqGa0Gqf-10" value="bibliotheque" style="rounded=0;whiteSpace=wrap;html=1;" vertex="1" parent="1">
          <mxGeometry x="540" y="730" width="200" height="50" as="geometry" />
        </mxCell>
        <mxCell id="bMBjgCvYi46jGqGa0Gqf-12" value="" style="endArrow=none;dashed=1;html=1;" edge="1" parent="1" source="bMBjgCvYi46jGqGa0Gqf-5" target="bMBjgCvYi46jGqGa0Gqf-5">
          <mxGeometry width="50" height="50" relative="1" as="geometry">
            <mxPoint x="170" y="870" as="sourcePoint" />
            <mxPoint x="220" y="820" as="targetPoint" />
          </mxGeometry>
        </mxCell>
        <mxCell id="bMBjgCvYi46jGqGa0Gqf-19" value="" style="endArrow=classic;html=1;" edge="1" parent="1">
          <mxGeometry width="50" height="50" relative="1" as="geometry">
            <mxPoint x="177" y="890" as="sourcePoint" />
            <mxPoint x="696.5" y="890" as="targetPoint" />
            <Array as="points">
              <mxPoint x="400" y="890" />
            </Array>
          </mxGeometry>
        </mxCell>
        <mxCell id="bMBjgCvYi46jGqGa0Gqf-20" value="recherche un adherent" style="text;html=1;align=center;verticalAlign=middle;resizable=0;points=[];autosize=1;strokeColor=none;" vertex="1" parent="1">
          <mxGeometry x="350" y="860" width="140" height="20" as="geometry" />
        </mxCell>
        <mxCell id="bMBjgCvYi46jGqGa0Gqf-24" value="" style="endArrow=classic;html=1;" edge="1" parent="1">
          <mxGeometry width="50" height="50" relative="1" as="geometry">
            <mxPoint x="696.5" y="950" as="sourcePoint" />
            <mxPoint x="177" y="950" as="targetPoint" />
            <Array as="points">
              <mxPoint x="420" y="950" />
            </Array>
          </mxGeometry>
        </mxCell>
        <mxCell id="bMBjgCvYi46jGqGa0Gqf-25" value="adherent trouvé" style="text;html=1;align=center;verticalAlign=middle;resizable=0;points=[];autosize=1;strokeColor=none;" vertex="1" parent="1">
          <mxGeometry x="370" y="920" width="100" height="20" as="geometry" />
        </mxCell>
        <mxCell id="bMBjgCvYi46jGqGa0Gqf-26" value="" style="endArrow=classic;html=1;" edge="1" parent="1">
          <mxGeometry width="50" height="50" relative="1" as="geometry">
            <mxPoint x="177" y="1001.25" as="sourcePoint" />
            <mxPoint x="696.5" y="1001.25" as="targetPoint" />
          </mxGeometry>
        </mxCell>
        <mxCell id="bMBjgCvYi46jGqGa0Gqf-27" value="l&#39;adherent peut emprunter" style="text;html=1;align=center;verticalAlign=middle;resizable=0;points=[];autosize=1;strokeColor=none;" vertex="1" parent="1">
          <mxGeometry x="330" y="967.5" width="150" height="20" as="geometry" />
        </mxCell>
        <mxCell id="bMBjgCvYi46jGqGa0Gqf-28" value="" style="endArrow=classic;html=1;" edge="1" parent="1">
          <mxGeometry width="50" height="50" relative="1" as="geometry">
            <mxPoint x="696.5" y="1040" as="sourcePoint" />
            <mxPoint x="177" y="1040" as="targetPoint" />
            <Array as="points">
              <mxPoint x="460" y="1040" />
            </Array>
          </mxGeometry>
        </mxCell>
        <mxCell id="bMBjgCvYi46jGqGa0Gqf-29" value="oeuvre trouvé" style="text;html=1;align=center;verticalAlign=middle;resizable=0;points=[];autosize=1;strokeColor=none;" vertex="1" parent="1">
          <mxGeometry x="350" y="1010" width="90" height="20" as="geometry" />
        </mxCell>
        <mxCell id="bMBjgCvYi46jGqGa0Gqf-30" value="" style="endArrow=classic;html=1;" edge="1" parent="1">
          <mxGeometry width="50" height="50" relative="1" as="geometry">
            <mxPoint x="177" y="1090" as="sourcePoint" />
            <mxPoint x="696.5" y="1090" as="targetPoint" />
            <Array as="points">
              <mxPoint x="290" y="1090" />
            </Array>
          </mxGeometry>
        </mxCell>
        <mxCell id="bMBjgCvYi46jGqGa0Gqf-31" value="verifier s&#39;il y a un exemplaire disponible" style="text;html=1;align=center;verticalAlign=middle;resizable=0;points=[];autosize=1;strokeColor=none;" vertex="1" parent="1">
          <mxGeometry x="285" y="1060" width="220" height="20" as="geometry" />
        </mxCell>
        <mxCell id="bMBjgCvYi46jGqGa0Gqf-32" value="" style="endArrow=classic;html=1;" edge="1" parent="1">
          <mxGeometry width="50" height="50" relative="1" as="geometry">
            <mxPoint x="696.5" y="1140" as="sourcePoint" />
            <mxPoint x="177" y="1140" as="targetPoint" />
            <Array as="points">
              <mxPoint x="560" y="1140" />
            </Array>
          </mxGeometry>
        </mxCell>
        <mxCell id="bMBjgCvYi46jGqGa0Gqf-33" value="décrémentter le nombre d&#39;exemplaire dans la bibliotheque" style="text;html=1;align=center;verticalAlign=middle;resizable=0;points=[];autosize=1;strokeColor=none;" vertex="1" parent="1">
          <mxGeometry x="235" y="1110" width="320" height="20" as="geometry" />
        </mxCell>
        <mxCell id="bMBjgCvYi46jGqGa0Gqf-36" value="&lt;span style=&quot;color: rgba(0 , 0 , 0 , 0) ; font-family: monospace ; font-size: 0px&quot;&gt;%3CmxGraphModel%3E%3Croot%3E%3CmxCell%20id%3D%220%22%2F%3E%3CmxCell%20id%3D%221%22%20parent%3D%220%22%2F%3E%3CmxCell%20id%3D%222%22%20value%3D%22%22%20style%3D%22line%3BstrokeWidth%3D4%3Bhtml%3D1%3Bperimeter%3DbackbonePerimeter%3Bpoints%3D%5B%5D%3BoutlineConnect%3D0%3Brotation%3D90%3B%22%20vertex%3D%221%22%20parent%3D%221%22%3E%3CmxGeometry%20x%3D%22505%22%20y%3D%22996.25%22%20width%3D%22385%22%20height%3D%2210%22%20as%3D%22geometry%22%2F%3E%3C%2FmxCell%3E%3C%2Froot%3E%3C%2FmxGraphModel%3E&lt;/span&gt;" style="text;html=1;align=center;verticalAlign=middle;resizable=0;points=[];autosize=1;strokeColor=none;" vertex="1" parent="1">
          <mxGeometry x="1220" y="1140" width="20" height="20" as="geometry" />
        </mxCell>
        <mxCell id="bMBjgCvYi46jGqGa0Gqf-38" value="" style="line;strokeWidth=4;html=1;perimeter=backbonePerimeter;points=[];outlineConnect=0;rotation=90;" vertex="1" parent="1">
          <mxGeometry x="-215" y="1180" width="770" height="10" as="geometry" />
        </mxCell>
        <mxCell id="bMBjgCvYi46jGqGa0Gqf-39" value="" style="line;strokeWidth=4;html=1;perimeter=backbonePerimeter;points=[];outlineConnect=0;rotation=90;" vertex="1" parent="1">
          <mxGeometry x="320" y="1190" width="770" height="10" as="geometry" />
        </mxCell>
        <mxCell id="bMBjgCvYi46jGqGa0Gqf-40" value="" style="endArrow=classic;html=1;" edge="1" parent="1" source="bMBjgCvYi46jGqGa0Gqf-38" target="bMBjgCvYi46jGqGa0Gqf-39">
          <mxGeometry width="50" height="50" relative="1" as="geometry">
            <mxPoint x="390" y="1340" as="sourcePoint" />
            <mxPoint x="440" y="1290" as="targetPoint" />
          </mxGeometry>
        </mxCell>
        <mxCell id="bMBjgCvYi46jGqGa0Gqf-41" value="disponibilité s&#39;exemplaire" style="text;html=1;align=center;verticalAlign=middle;resizable=0;points=[];autosize=1;strokeColor=none;" vertex="1" parent="1">
          <mxGeometry x="345" y="1160" width="150" height="20" as="geometry" />
        </mxCell>
        <mxCell id="bMBjgCvYi46jGqGa0Gqf-42" value="" style="endArrow=classic;html=1;" edge="1" parent="1" source="bMBjgCvYi46jGqGa0Gqf-39" target="bMBjgCvYi46jGqGa0Gqf-38">
          <mxGeometry width="50" height="50" relative="1" as="geometry">
            <mxPoint x="490" y="1400" as="sourcePoint" />
            <mxPoint x="540" y="1350" as="targetPoint" />
            <Array as="points">
              <mxPoint x="580" y="1260" />
            </Array>
          </mxGeometry>
        </mxCell>
        <mxCell id="bMBjgCvYi46jGqGa0Gqf-43" value="décrémenté le nombre d&#39;exemplaire dans la bibliotheque" style="text;html=1;align=center;verticalAlign=middle;resizable=0;points=[];autosize=1;strokeColor=none;" vertex="1" parent="1">
          <mxGeometry x="285" y="1230" width="320" height="20" as="geometry" />
        </mxCell>
        <mxCell id="bMBjgCvYi46jGqGa0Gqf-44" value="" style="endArrow=classic;html=1;" edge="1" parent="1" source="bMBjgCvYi46jGqGa0Gqf-38" target="bMBjgCvYi46jGqGa0Gqf-39">
          <mxGeometry width="50" height="50" relative="1" as="geometry">
            <mxPoint x="180" y="1360" as="sourcePoint" />
            <mxPoint x="370" y="1350" as="targetPoint" />
            <Array as="points">
              <mxPoint x="370" y="1330" />
            </Array>
          </mxGeometry>
        </mxCell>
        <mxCell id="bMBjgCvYi46jGqGa0Gqf-45" value="atribuer l&#39;exemplaire a l&#39;adherent" style="text;html=1;align=center;verticalAlign=middle;resizable=0;points=[];autosize=1;strokeColor=none;" vertex="1" parent="1">
          <mxGeometry x="340" y="1300" width="190" height="20" as="geometry" />
        </mxCell>
      </root>
    </mxGraphModel>
  </diagram>
</mxfile>
